<svg width="264" height="78" viewBox="0 0 264 78" fill="none" xmlns="http://www.w3.org/2000/svg">
<path d="M1.524 54.4479C1.488 54.4479 1.452 54.4839 1.416 54.4839C0.984 54.4839 0.408 53.8719 0.408 53.5479C0.408 53.4759 0.444 53.4039 0.516 53.3679C0.552 53.3679 3.864 52.3959 8.364 51.4599C11.496 45.8799 15.348 39.4359 18.048 36.3759C15.996 37.2759 13.8 38.3199 13.764 38.3199C13.728 38.3199 13.692 38.3559 13.62 38.3559C13.224 38.3559 12.612 37.7439 12.612 37.4199C12.612 37.3479 12.648 37.3119 12.72 37.2759C12.72 37.2759 19.704 33.9999 20.712 33.9999C21.108 33.9999 21.828 34.4679 21.828 34.8999C21.828 35.0079 21.792 35.1159 21.72 35.1879C21.54 35.3679 21.216 35.6199 20.676 35.9799C18.336 37.5279 14.088 44.4039 10.524 50.7039C14.988 44.6199 20.424 37.8159 23.484 36.1599C23.952 35.9079 24.384 35.7999 24.78 35.7999C25.968 35.7999 26.832 36.7359 27.12 38.0679C27.192 38.4639 27.228 38.8599 27.228 39.3279C27.228 42.0279 25.932 46.0959 24.564 49.9479C26.076 50.0919 26.904 50.7759 26.904 51.0639C26.904 51.1719 26.832 51.2079 26.688 51.2079C26.652 51.2079 26.616 51.2079 26.544 51.2079C25.824 51.0999 25.032 50.9919 24.204 50.9559C23.7 52.4319 21.324 58.3719 21.324 59.9559C21.324 60.0279 21.324 60.0639 21.324 60.0999C21.324 60.2439 21.144 60.3159 20.964 60.3159C20.604 60.3159 20.1 60.0279 20.1 59.0559C20.1 58.7319 20.172 58.3359 20.28 57.8319C20.712 56.1759 21.828 53.2239 22.692 50.9199C22.656 50.9199 22.62 50.9199 22.548 50.9199C18.984 50.9199 14.916 51.4599 11.316 52.1439C7.428 57.5079 4.296 62.1879 4.296 62.2239C4.224 62.2959 4.188 62.2959 4.08 62.2959C3.72 62.2959 3.036 61.7559 3.036 61.4319C3.036 61.3599 3.072 61.3239 3.072 61.2879C3.144 61.1439 5.016 57.4719 7.536 52.9359C4.008 53.7279 1.56 54.4479 1.524 54.4479ZM12.396 50.7039C15.492 50.1999 18.804 49.8399 21.792 49.8399C22.224 49.8399 22.656 49.8399 23.052 49.8399C23.592 48.3639 26.004 41.7039 26.004 38.4279C26.004 37.6359 25.86 37.0239 25.536 36.7359C25.5 36.6999 25.428 36.6639 25.32 36.6639C23.376 36.6639 13.224 49.5879 12.396 50.7039ZM35.3837 50.6319C35.4557 50.5599 35.4917 50.5599 35.5637 50.5599C35.9237 50.5599 36.4997 51.1359 36.4997 51.4959C36.4997 51.5679 36.4997 51.6039 36.4637 51.6399C34.4477 53.1159 28.9757 60.3519 27.7517 60.4239C27.7157 60.4239 27.6797 60.4239 27.6437 60.4239C26.5997 60.4239 26.1317 59.7039 26.1317 58.5159C26.1317 55.2399 30.2357 45.2679 32.4677 39.9039C33.1157 38.3199 33.5837 37.1319 33.7637 36.6279C33.7997 36.5559 33.8717 36.5199 33.9797 36.5199C34.3397 36.5199 35.0237 37.0239 35.0237 37.3839C35.0237 37.9239 34.3397 39.2199 33.6917 40.7679C31.4957 46.0959 27.4277 55.9239 27.3917 59.1279C29.5157 57.6879 32.8637 53.0439 35.3837 50.6319ZM35.6804 53.4399C35.5004 53.5119 35.3564 53.8719 35.3564 54.2319C35.3564 54.5559 35.4644 54.8799 35.7524 54.9879C35.9684 55.0599 36.1844 55.0599 36.4364 55.0599C38.8844 55.0599 42.9524 52.0359 44.5004 50.6679C44.5364 50.6319 44.5724 50.6319 44.6444 50.6319C45.0044 50.6319 45.5804 51.2439 45.5804 51.6399C45.5804 51.7119 45.5444 51.7479 45.5084 51.7839C45.4724 51.8199 40.5404 56.1399 37.1924 56.1399C37.0124 56.1399 36.8684 56.1399 36.7244 56.1399C34.9244 55.8879 34.2404 54.9159 34.2404 53.7279C34.2404 51.3879 36.8324 48.2559 38.7404 48.1479C38.7764 48.1479 38.8124 48.1479 38.8124 48.1479C39.7124 48.1479 40.6124 48.9399 40.6124 49.8399C40.6124 50.0559 40.5404 50.2719 40.4324 50.4879C39.5324 51.9999 35.6804 53.4399 35.6804 53.4399ZM36.6524 51.4959C37.6604 50.9919 39.1004 50.0919 39.3164 49.2999C38.4884 49.5159 37.4084 50.5239 36.6524 51.4959ZM54.6499 50.2359C54.6859 50.1999 54.7219 50.1999 54.7939 50.1999C55.1899 50.1999 55.8379 50.7759 55.8379 51.0999C55.8379 51.1719 55.8019 51.2439 55.7299 51.2799C53.9299 52.3959 50.3659 54.9519 48.2419 54.9519C48.1339 54.9519 47.9899 54.9519 47.8819 54.9159C47.3059 54.8439 46.7659 54.5199 46.3339 54.0879C44.4259 56.2839 42.5899 58.6239 42.2659 59.9919C42.2659 60.0999 42.1939 60.1359 42.0859 60.1359C41.7259 60.1359 41.0419 59.6319 41.0419 59.2359C41.0419 57.8319 43.5979 54.9159 45.5419 52.7199C45.4339 52.3959 45.3619 52.0719 45.3259 51.7119C44.8939 51.7119 44.2819 51.1359 44.2819 50.8119C44.2819 50.7759 44.3179 50.7399 44.3179 50.7039L45.3979 48.7239C45.4339 48.6519 45.5059 48.6519 45.5779 48.6519C45.9379 48.6519 46.6219 49.1559 46.6219 49.5519C46.6219 50.1639 46.5499 50.7759 46.5499 51.2799C46.5499 51.3879 46.5499 51.4959 46.5499 51.6039C48.3499 49.6239 49.9339 48.1119 49.9339 48.1119C49.9699 48.0759 50.0419 48.0399 50.1139 48.0399C50.5099 48.0399 51.1579 48.6159 51.1579 48.9399C51.1579 49.0119 51.1579 49.0479 51.0859 49.0839C51.0859 49.0839 48.9979 51.0999 46.8739 53.5119C46.9819 53.7639 47.0179 53.7999 47.2339 53.8359C47.3059 53.8359 47.4139 53.8719 47.4859 53.8719C49.3219 53.8719 52.9939 51.2439 54.6499 50.2359ZM59.4168 49.7679C59.2728 50.0919 58.6608 49.6959 58.4808 49.5159C57.1488 49.9119 55.0248 51.3879 55.0248 52.9359C55.0248 53.1159 55.0608 53.2599 55.0968 53.4399C55.1328 53.4399 55.1328 53.4399 55.1688 53.4399C56.3928 53.4399 59.6688 49.8039 59.7048 49.8039C59.8128 49.6599 60.1728 49.7679 60.4968 50.0199C60.7848 50.2359 60.9288 50.4879 60.8928 50.6679C60.9288 51.0279 60.6768 51.6399 60.6768 52.1079C60.6768 52.2879 60.7128 52.4679 60.8208 52.5759C60.8928 52.6479 61.0008 52.7199 61.1448 52.7199C61.4688 52.7199 62.0088 52.5039 63.1248 51.8199C64.3848 51.0279 66.0048 49.7679 67.8768 48.1839C67.9128 48.1479 67.9848 48.1479 68.0568 48.1479C68.4168 48.1479 69.1008 48.7239 69.1008 49.0479C69.1008 49.0839 69.1008 49.1199 69.0648 49.1559C69.0288 49.2279 68.0928 50.9919 67.2288 52.7199C68.2728 51.7119 70.7568 48.8319 72.5928 48.8319C72.9528 48.8319 73.2768 48.9399 73.5648 49.1919C74.1768 49.6599 74.3568 50.3799 74.3568 51.1359C74.3568 51.8199 74.2128 52.5759 74.2128 53.2239C74.2128 53.4399 74.2488 53.6199 74.2488 53.7999C75.5448 53.5839 78.2088 51.4239 79.1808 50.6319C79.2168 50.5959 79.2888 50.5959 79.3608 50.5959C79.7208 50.5959 80.3328 51.1359 80.3328 51.4599C80.3328 51.5319 80.3328 51.5679 80.2968 51.6039C79.2528 52.4679 76.5168 54.8799 74.8248 54.8799C74.6088 54.8799 74.4288 54.8439 74.2488 54.7719C73.2048 54.3039 72.9528 53.2599 72.9528 52.2159C72.9528 51.3159 73.1328 50.4159 73.1328 50.0559C73.1328 49.9839 73.1328 49.9119 73.0608 49.9119C71.2248 49.9119 66.3648 56.0679 65.5368 56.2479C65.5368 56.2479 65.5008 56.2479 65.4648 56.2479C65.1048 56.2479 64.3488 55.9239 64.3488 55.4919C64.3488 55.4559 64.3488 55.4199 64.3488 55.3479C64.3128 54.9879 65.9688 51.8919 66.2208 51.4599C65.4648 51.9999 64.8168 52.4679 64.2048 52.8279C63.2328 53.4399 62.3688 53.7999 61.6848 53.7999C61.3968 53.7999 61.1088 53.7279 60.8928 53.6199C60.2088 53.2599 59.7768 52.7559 59.6328 51.9999C58.5168 53.0439 56.8248 54.3399 55.5648 54.3399C55.3128 54.3399 55.0608 54.3039 54.8448 54.1599C54.3768 53.8719 54.0168 53.4399 53.8368 52.8639C53.8008 52.7199 53.8008 52.5399 53.8008 52.3599C53.8008 50.5239 56.2128 48.3999 57.9768 48.3999C58.4808 48.3999 58.9128 48.5439 59.2368 48.9399C59.4528 49.1919 59.5248 49.4799 59.4168 49.7679ZM85.7851 49.2279C85.7491 49.1919 85.7131 49.1559 85.6411 49.1559C84.9571 50.3799 82.5811 55.2759 80.4931 55.2759C80.2051 55.2759 79.9531 55.1679 79.7011 54.9879C79.0171 54.4839 78.6931 53.5839 78.6931 52.6119C78.6931 52.0359 78.8011 51.4239 79.0171 50.8479C79.7371 48.9399 81.2131 47.4639 83.0851 47.4639C83.5891 47.4639 84.1291 47.5719 84.7051 47.7879C87.4411 42.8559 90.1051 36.8799 90.1051 36.8439C90.1411 36.7719 90.2131 36.7359 90.3211 36.7359C90.6811 36.7359 91.5091 37.2759 91.3651 37.6359C89.4931 42.2799 83.7691 57.5439 83.7691 61.4319C83.7691 61.6119 83.8051 61.7559 83.8051 61.8999C83.8051 62.0439 83.7331 62.0799 83.6251 62.0799C83.2651 62.0799 82.6531 61.6839 82.5451 61.2519C82.5451 61.1079 82.5091 60.8919 82.5091 60.7119C82.5091 58.5519 84.0211 54.0879 85.7851 49.2279ZM84.2371 48.5799C84.1291 48.5799 84.0571 48.5799 83.9491 48.5799C81.6811 48.5799 79.8091 51.8199 79.8091 53.5839C79.8091 53.8359 79.8451 54.0519 79.9171 54.2319C81.0331 53.9079 82.9411 50.8839 84.2371 48.5799ZM98.8084 50.7039C99.1324 50.3799 100.104 51.4239 99.7804 51.7119C98.2684 53.1879 93.2284 59.5239 91.5004 58.9479C91.1404 58.8039 90.7804 58.5159 90.5644 58.1919C89.7004 56.8959 92.3644 52.8279 93.1204 51.3159C91.9684 51.6759 90.7444 51.8199 89.7724 51.1719C88.0444 49.9839 89.1244 47.3919 90.4564 46.9959C91.2484 46.7799 92.1844 47.5719 92.3284 48.3279C92.4364 48.7599 92.3284 49.4439 91.8964 50.3079C92.3284 50.1999 93.1924 49.8039 93.5524 49.8039C94.1284 49.8399 94.4884 50.1639 94.7044 50.7039C95.0644 51.6759 91.8604 56.2119 91.5724 57.8679C93.3004 57.0399 97.1524 52.3599 98.8084 50.7039ZM90.0964 50.4879C90.7084 49.5159 90.9964 48.7959 91.0684 48.2919C90.8524 48.4719 90.6004 48.8319 90.3844 49.2999C90.3484 49.3359 89.9884 50.3799 90.0964 50.4879ZM99.1374 53.4399C98.9574 53.5119 98.8134 53.8719 98.8134 54.2319C98.8134 54.5559 98.9214 54.8799 99.2094 54.9879C99.4254 55.0599 99.6414 55.0599 99.8934 55.0599C102.341 55.0599 106.409 52.0359 107.957 50.6679C107.993 50.6319 108.029 50.6319 108.101 50.6319C108.461 50.6319 109.037 51.2439 109.037 51.6399C109.037 51.7119 109.001 51.7479 108.965 51.7839C108.929 51.8199 103.997 56.1399 100.649 56.1399C100.469 56.1399 100.325 56.1399 100.181 56.1399C98.3814 55.8879 97.6974 54.9159 97.6974 53.7279C97.6974 51.3879 100.289 48.2559 102.197 48.1479C102.233 48.1479 102.269 48.1479 102.269 48.1479C103.169 48.1479 104.069 48.9399 104.069 49.8399C104.069 50.0559 103.997 50.2719 103.889 50.4879C102.989 51.9999 99.1374 53.4399 99.1374 53.4399ZM100.109 51.4959C101.117 50.9919 102.557 50.0919 102.773 49.2999C101.945 49.5159 100.865 50.5239 100.109 51.4959ZM109.04 43.5039C109.364 43.6119 109.688 43.9359 109.796 44.2239C109.868 44.4759 109.652 44.5839 109.328 44.4759C107.312 43.6839 106.412 42.6759 106.232 41.6319C106.232 41.5599 106.232 41.4879 106.232 41.3799C106.232 38.7519 112.568 35.8719 116.636 35.8719C117.968 35.8719 119.048 36.1599 119.588 36.8799C119.84 37.2759 119.948 37.7439 119.948 38.3199C119.948 40.9119 117.572 45.1959 117.572 48.1119C117.572 49.4439 118.076 50.4879 119.66 50.9199C119.948 50.9919 120.272 51.0279 120.56 51.0279C126.536 51.0279 132.98 36.8079 134.312 36.8079H134.348C135.032 36.9159 135.392 37.2759 135.392 37.9599C135.392 38.0679 135.356 38.2119 135.356 38.3559C135.068 40.0119 133.952 44.9079 132.26 50.1279C133.52 49.5879 134.708 49.1919 135.752 48.9399C135.788 48.9399 135.824 48.9399 135.86 48.9399C136.292 48.9399 136.904 49.5159 136.904 49.8399C136.904 49.9119 136.832 49.9839 136.724 50.0199C135.248 50.3439 133.484 51.0279 131.648 51.9279C130.388 55.5639 126.608 66.1839 121.928 66.1839C121.784 66.1839 121.64 66.1479 121.46 66.1479C120.272 65.9319 118.832 65.1039 118.184 64.0599C117.896 63.5919 117.752 63.0879 117.752 62.5839C117.752 58.1559 127.688 52.2879 130.46 50.9559C131.864 46.8519 132.98 42.7479 133.592 40.0479C131.396 43.5039 126.176 52.1079 121.208 52.1079C120.848 52.1079 120.488 52.0719 120.164 51.9639C117.212 51.1719 116.312 49.4439 116.312 47.3559C116.312 43.9359 118.796 39.6879 118.796 37.6719C118.796 37.3479 118.76 37.0959 118.616 36.8799C118.472 36.6999 118.184 36.6279 117.716 36.6279C115.016 36.6279 107.456 39.5439 107.456 42.0639C107.456 42.0999 107.492 42.1719 107.492 42.2439C107.564 42.6759 107.996 43.0719 109.04 43.5039ZM129.74 52.8999C126.572 54.6999 121.172 58.2999 119.48 61.6839C119.192 62.2599 119.048 62.7999 119.048 63.3039C119.048 64.1679 119.552 64.8519 120.812 65.0679C120.956 65.0679 121.064 65.0679 121.208 65.0679C125.096 65.0679 128.696 55.7799 129.74 52.8999ZM139.254 49.9479C139.65 50.2359 139.362 50.1999 139.686 50.2719C139.974 50.3439 140.262 50.3799 140.586 50.3799C140.838 50.3799 141.126 50.3439 141.45 50.3079C141.486 49.9479 141.45 49.6239 141.342 49.4079C141.342 49.3719 141.234 49.3719 141.09 49.3719C140.622 49.3719 139.578 49.4799 139.254 49.9479ZM147.714 46.6359C147.75 46.5999 147.822 46.5639 147.858 46.5639C148.254 46.5639 148.902 47.1759 148.902 47.4999C148.902 47.5719 148.866 47.6079 148.794 47.6439C147.318 48.5079 146.67 49.2279 146.67 50.1999C146.67 50.7759 146.886 51.4599 147.318 52.2879C148.794 51.6399 150.846 50.9919 152.862 50.5239C152.862 50.5239 152.898 50.5239 152.934 50.5239C153.33 50.5239 153.726 51.0639 153.726 51.4239C153.726 51.5319 153.654 51.6399 153.546 51.6759C151.314 52.1799 149.37 52.8279 147.858 53.5479C147.894 53.7279 147.93 53.9439 147.93 54.1239C147.93 55.0599 147.21 55.9599 144.798 56.8239C144.762 56.8239 144.69 56.8599 144.654 56.8599C144.186 56.8599 143.25 56.1759 143.25 55.3839C143.25 55.2039 143.322 54.9879 143.466 54.7719C144.042 53.9799 145.446 53.1519 146.49 52.6479C146.166 51.8559 145.626 51.1359 145.41 50.1999C144.438 50.8119 143.502 51.1359 142.638 51.3159C142.278 53.2239 140.298 55.9239 138.138 55.9239C137.742 55.9239 137.31 55.8519 136.914 55.6359C136.014 55.1319 135.69 54.4839 135.69 53.7999C135.69 52.9359 136.194 51.9999 136.842 51.2079C137.238 50.6679 137.706 50.1999 138.102 49.9479C137.994 49.7319 137.922 49.5519 137.922 49.4079C137.922 48.7599 138.786 48.3999 139.794 48.3279C139.902 48.2919 139.974 48.2919 140.082 48.2919C141.198 48.2919 142.278 48.8679 142.602 49.9839C143.646 49.6599 144.798 49.0119 146.022 47.9319C146.418 47.4999 146.958 47.0679 147.714 46.6359ZM139.182 50.9199C138.498 51.4239 137.13 53.0799 136.95 54.2319C136.914 54.3759 136.914 54.4839 136.914 54.5919C136.914 54.9519 137.058 55.0959 137.31 55.0959C138.246 55.0959 140.586 52.6839 141.126 51.4599C140.406 51.4239 139.758 51.2439 139.182 50.9199ZM145.158 55.1679C145.662 54.9159 146.022 54.6639 146.238 54.4119C145.878 54.6279 145.482 54.8799 145.158 55.1679ZM165.059 50.5239C165.095 50.4879 165.167 50.4879 165.203 50.4879C165.599 50.4879 166.175 51.0279 166.175 51.3519C166.175 51.4239 166.175 51.4959 166.103 51.5319C164.843 52.3599 162.539 54.1239 160.703 54.1239C160.163 54.1239 159.623 53.9439 159.191 53.5119C158.327 52.6479 158.327 51.2079 158.255 50.0559C156.203 51.3159 153.863 55.7079 152.423 57.3279C152.315 57.3999 152.207 57.4359 152.099 57.4359C151.558 57.4359 150.982 56.8239 150.982 56.2479C150.982 54.0879 157.823 36.5559 157.823 36.5559C157.859 36.4479 157.931 36.4119 158.039 36.4119C158.435 36.4119 159.227 37.0599 159.083 37.4199C159.047 37.4559 154.691 48.7959 152.927 54.2679C153.971 52.8279 155.735 50.0559 157.031 49.1199C157.247 48.9399 157.463 48.8679 157.679 48.8679C157.859 48.8679 158.039 48.9039 158.219 49.0119C160.019 50.0199 159.227 51.8199 159.803 53.0799C159.839 53.0799 159.875 53.0799 159.875 53.0799C161.135 53.0799 164.087 51.1719 165.059 50.5239ZM166.059 48.1839C166.095 48.1119 166.167 48.0759 166.275 48.0759C166.635 48.0759 167.319 48.6159 167.319 48.9759C167.319 49.0119 167.319 49.0479 167.283 49.0839C166.815 50.0919 165.591 52.8639 165.591 54.3759C165.591 54.5919 165.591 54.7719 165.627 54.9159C165.663 54.9159 165.663 54.9159 165.699 54.9159C167.355 54.9159 170.343 51.7119 171.279 50.5599C171.315 50.5239 171.387 50.4879 171.423 50.4879C171.711 50.4879 172.215 51.1359 172.215 51.4959C172.215 51.5679 172.215 51.6399 172.179 51.6759C171.099 53.0079 168.435 55.9959 166.419 55.9959C166.275 55.9959 166.095 55.9599 165.951 55.9239C165.411 55.7799 164.907 55.3839 164.655 54.9159C164.439 54.5919 164.367 54.1599 164.367 53.6559C164.367 51.8559 165.519 49.3719 166.059 48.1839ZM168.039 47.3919C168.003 47.4639 167.931 47.4999 167.823 47.4999C167.463 47.4999 166.779 46.9599 166.779 46.5999C166.779 46.5639 166.815 46.5279 166.815 46.4919L168.291 44.1519C168.327 44.0799 168.399 44.0439 168.507 44.0439C168.867 44.0439 169.551 44.5839 169.551 44.9439C169.551 44.9799 169.515 45.0159 169.515 45.0519L168.039 47.3919ZM176.136 49.7679C176.028 50.0559 175.416 49.7319 175.2 49.5159C173.724 49.9479 171.744 51.4599 171.744 52.9359C171.744 53.0799 171.78 53.2239 171.816 53.3319C173.364 53.1879 176.424 49.8039 176.424 49.8039C176.496 49.6959 176.604 49.6599 176.712 49.6599C177.144 49.6599 177.684 50.3439 177.684 50.5959C177.684 50.6319 177.648 50.6679 177.648 50.6679C177.576 51.1719 177.54 51.6039 177.54 51.9999C177.54 52.3959 177.576 52.7199 177.648 52.9719C177.684 53.1159 177.828 53.1879 178.044 53.1879C179.268 53.1879 182.796 50.9559 183.3 50.6319C183.336 50.5959 183.408 50.5959 183.444 50.5959C183.84 50.5959 184.416 51.1719 184.416 51.4959C184.416 51.5679 184.38 51.6039 184.344 51.6399C182.796 52.6119 180.528 54.2319 178.8 54.2319C178.62 54.2319 178.44 54.2319 178.26 54.1959C177.18 53.9079 176.496 53.1879 176.316 52.0359C175.2 53.1159 173.544 54.4479 172.464 54.4479C172.392 54.4479 172.356 54.4479 172.284 54.4119C171.528 54.3399 170.808 53.6919 170.592 52.8639C170.52 52.6839 170.52 52.4679 170.52 52.2879C170.52 50.4879 172.716 48.8679 174.228 48.4359C174.408 48.3999 174.588 48.3639 174.768 48.3639C175.236 48.3639 175.632 48.5439 175.956 48.9399C176.172 49.1919 176.244 49.4799 176.136 49.7679ZM188.624 36.6279C188.66 36.5559 188.732 36.5199 188.84 36.5199C189.236 36.5199 189.992 37.1319 189.884 37.4919C189.848 37.5279 185.456 48.2919 183.62 53.9079C184.628 52.4319 187.256 48.1479 188.444 47.5719C188.588 47.4999 188.696 47.4639 188.804 47.4639C189.416 47.4639 189.992 48.1119 189.992 48.3999C189.992 48.4719 189.956 48.5079 189.92 48.5079C189.74 48.5799 189.74 48.3279 189.056 48.9399C188.408 49.5519 187.544 50.7759 186.68 52.0719C186.68 52.1439 186.644 52.2519 186.644 52.3959C186.644 52.8999 186.716 53.7639 187.112 54.0159C187.256 54.1239 187.472 54.1959 187.688 54.1959C189.38 54.1959 192.764 51.4959 193.556 50.5959C193.592 50.5599 193.664 50.5239 193.7 50.5239C194.024 50.5239 194.6 51.1719 194.6 51.5679C194.6 51.6399 194.6 51.6759 194.564 51.7119C193.304 53.1159 190.712 55.2039 188.516 55.2039C187.904 55.2039 187.364 55.0599 186.86 54.6999C186.356 54.3399 185.996 53.8719 185.78 53.4039C184.7 55.0239 183.188 57.4719 182.612 57.4719C181.892 57.4719 181.532 57.0759 181.532 56.4279C181.532 54.1959 188.624 36.6999 188.624 36.6279ZM194.641 48.1839C194.677 48.1119 194.749 48.0759 194.857 48.0759C195.217 48.0759 195.901 48.6159 195.901 48.9759C195.901 49.0119 195.901 49.0479 195.865 49.0839C195.397 50.0919 194.173 52.8639 194.173 54.3759C194.173 54.5919 194.173 54.7719 194.209 54.9159C194.245 54.9159 194.245 54.9159 194.281 54.9159C195.937 54.9159 198.925 51.7119 199.861 50.5599C199.897 50.5239 199.969 50.4879 200.005 50.4879C200.293 50.4879 200.797 51.1359 200.797 51.4959C200.797 51.5679 200.797 51.6399 200.761 51.6759C199.681 53.0079 197.017 55.9959 195.001 55.9959C194.857 55.9959 194.677 55.9599 194.533 55.9239C193.993 55.7799 193.489 55.3839 193.237 54.9159C193.021 54.5919 192.949 54.1599 192.949 53.6559C192.949 51.8559 194.101 49.3719 194.641 48.1839ZM196.621 47.3919C196.585 47.4639 196.513 47.4999 196.405 47.4999C196.045 47.4999 195.361 46.9599 195.361 46.5999C195.361 46.5639 195.397 46.5279 195.397 46.4919L196.873 44.1519C196.909 44.0799 196.981 44.0439 197.089 44.0439C197.449 44.0439 198.133 44.5839 198.133 44.9439C198.133 44.9799 198.097 45.0159 198.097 45.0519L196.621 47.3919Z" fill="#003D7E"/>
<path opacity="0.8" d="M103.087 12.8329C103.484 12.934 103.835 13.1326 104.14 13.4287C104.455 13.7257 104.69 14.0796 104.845 14.4903C105.01 14.902 105.072 15.3309 105.031 15.777C104.979 16.3399 104.788 16.8364 104.459 17.2665C104.131 17.686 103.679 18.003 103.102 18.2173C102.536 18.422 101.882 18.4898 101.138 18.4209L96.9962 18.0369L98.0257 6.93249L102.009 7.30176C102.763 7.37168 103.393 7.55871 103.901 7.86285C104.409 8.15637 104.777 8.52786 105.003 8.97732C105.229 9.42679 105.317 9.91705 105.268 10.4481C105.207 11.1066 104.976 11.6369 104.574 12.0388C104.184 12.4312 103.688 12.6959 103.087 12.8329ZM99.0309 11.8623L101.468 12.0883C102.148 12.1514 102.689 12.0408 103.09 11.7566C103.491 11.4724 103.718 11.0489 103.77 10.486C103.822 9.92306 103.677 9.46505 103.335 9.11196C102.993 8.75886 102.471 8.54981 101.77 8.48482L99.3647 8.26178L99.0309 11.8623ZM101.122 17.2142C101.844 17.2812 102.423 17.1634 102.858 16.861C103.293 16.5585 103.538 16.1046 103.595 15.4992C103.652 14.8832 103.484 14.3802 103.092 13.9903C102.7 13.5898 102.149 13.3566 101.437 13.2906L98.9201 13.0572L98.5567 16.9764L101.122 17.2142ZM106.633 14.4954C106.715 13.6032 106.968 12.8393 107.392 12.2036C107.816 11.5574 108.358 11.0774 109.019 10.7638C109.691 10.4511 110.415 10.3307 111.19 10.4026C111.955 10.4735 112.603 10.6997 113.136 11.0811C113.668 11.4626 114.049 11.9157 114.279 12.4405L114.427 10.8473L115.893 10.9832L115.083 19.7138L113.617 19.5779L113.768 17.9528C113.434 18.4361 112.964 18.821 112.359 19.1077C111.766 19.3848 111.092 19.4884 110.338 19.4185C109.563 19.3466 108.879 19.0904 108.288 18.6499C107.697 18.2095 107.253 17.6273 106.956 16.9035C106.659 16.1796 106.551 15.3769 106.633 14.4954ZM114.024 15.1967C114.085 14.5382 114.005 13.9523 113.785 13.4391C113.565 12.9259 113.238 12.5207 112.805 12.2235C112.383 11.9166 111.902 11.738 111.36 11.6878C110.818 11.6376 110.313 11.7192 109.843 11.9328C109.373 12.1463 108.983 12.4851 108.672 12.949C108.361 13.413 108.175 13.9742 108.114 14.6327C108.052 15.3019 108.131 15.8983 108.35 16.4222C108.57 16.9353 108.891 17.3454 109.313 17.6523C109.735 17.9485 110.217 18.1218 110.759 18.172C111.301 18.2222 111.806 18.1405 112.276 17.927C112.757 17.7038 113.153 17.3602 113.464 16.8963C113.776 16.4217 113.963 15.8552 114.024 15.1967ZM122.611 11.4454C123.673 11.5439 124.503 11.9476 125.102 12.6565C125.701 13.3549 125.945 14.3094 125.833 15.5202L125.356 20.6662L123.922 20.5332L124.38 15.5944C124.46 14.7235 124.304 14.0395 123.911 13.5424C123.519 13.0347 122.946 12.7459 122.192 12.676C121.427 12.6051 120.794 12.7874 120.293 13.223C119.803 13.6596 119.515 14.3346 119.43 15.248L118.983 20.0753L117.533 19.9409L118.343 11.2104L119.792 11.3448L119.677 12.5874C120.005 12.1679 120.425 11.8587 120.936 11.6597C121.458 11.4617 122.016 11.3903 122.611 11.4454ZM127.588 16.4543C127.672 15.5515 127.925 14.7823 128.349 14.1466C128.773 13.5004 129.321 13.0209 129.992 12.7082C130.675 12.3966 131.43 12.2791 132.259 12.3559C133.331 12.4554 134.189 12.7974 134.831 13.3818C135.484 13.9672 135.879 14.7323 136.016 15.677L134.455 15.5323C134.355 14.9874 134.102 14.5408 133.695 14.1924C133.299 13.845 132.782 13.6418 132.145 13.5827C131.316 13.5059 130.621 13.7306 130.058 14.2569C129.496 14.7725 129.166 15.5508 129.07 16.5917C128.972 17.6432 129.152 18.4793 129.609 19.1001C130.065 19.7209 130.708 20.0697 131.536 20.1465C132.174 20.2056 132.718 20.1062 133.171 19.8482C133.623 19.5902 133.955 19.1924 134.165 18.6549L135.727 18.7996C135.41 19.6701 134.876 20.3437 134.125 20.8204C133.375 21.2865 132.474 21.4708 131.423 21.3733C130.594 21.2965 129.873 21.0422 129.26 20.6104C128.657 20.1795 128.207 19.6075 127.908 18.8943C127.61 18.181 127.504 17.3677 127.588 16.4543ZM141.195 22.2793C140.378 22.2035 139.651 21.9487 139.017 21.5149C138.393 21.0822 137.921 20.5082 137.602 19.793C137.294 19.0681 137.182 18.2543 137.266 17.3515C137.348 16.4593 137.612 15.6911 138.058 15.0468C138.515 14.3929 139.094 13.9163 139.797 13.6173C140.501 13.3076 141.267 13.1911 142.095 13.2679C142.924 13.3447 143.655 13.6 144.29 14.0338C144.925 14.457 145.403 15.0261 145.722 15.7413C146.052 16.4575 146.175 17.267 146.092 18.1698C146.008 19.0726 145.732 19.8505 145.265 20.5034C144.809 21.1468 144.224 21.6228 143.509 21.9315C142.795 22.2402 142.024 22.3562 141.195 22.2793ZM141.314 21.0048C141.834 21.0531 142.334 20.9762 142.813 20.7743C143.293 20.5723 143.693 20.2399 144.014 19.7769C144.347 19.3149 144.545 18.7334 144.61 18.0324C144.675 17.3314 144.592 16.7239 144.361 16.2097C144.13 15.6955 143.803 15.3009 143.378 15.0259C142.955 14.7403 142.483 14.5733 141.963 14.5251C141.431 14.4758 140.932 14.5527 140.463 14.7556C140.006 14.9489 139.622 15.2775 139.311 15.7415C139 16.2054 138.812 16.7879 138.747 17.4889C138.681 18.2005 138.753 18.8124 138.963 19.3246C139.183 19.8378 139.499 20.2367 139.912 20.5214C140.326 20.7954 140.793 20.9566 141.314 21.0048ZM158.632 21.2607L153.789 20.8117L152.668 23.1984L151.138 23.0566L156.177 12.3881L157.849 12.5432L160.825 23.9546L159.295 23.8128L158.632 21.2607ZM158.327 20.0433L156.84 14.2493L154.312 19.6711L158.327 20.0433ZM168.665 18.9129C169.062 19.014 169.414 19.2126 169.718 19.5087C170.033 19.8057 170.268 20.1596 170.423 20.5703C170.589 20.982 170.651 21.4109 170.609 21.857C170.557 22.4199 170.366 22.9164 170.037 23.3465C169.709 23.766 169.257 24.0829 168.68 24.2972C168.114 24.5019 167.46 24.5698 166.717 24.5009L162.574 24.1168L163.604 13.0125L167.587 13.3817C168.341 13.4517 168.972 13.6387 169.479 13.9428C169.987 14.2363 170.355 14.6078 170.581 15.0573C170.807 15.5068 170.895 15.997 170.846 16.5281C170.785 17.1866 170.554 17.7168 170.152 18.1188C169.763 18.5112 169.267 18.7759 168.665 18.9129ZM164.609 17.9423L167.047 18.1683C167.726 18.2313 168.267 18.1208 168.668 17.8366C169.069 17.5524 169.296 17.1289 169.348 16.566C169.401 16.003 169.256 15.545 168.913 15.1919C168.571 14.8388 168.05 14.6298 167.349 14.5648L164.943 14.3418L164.609 17.9423ZM166.7 23.2942C167.422 23.3612 168.001 23.2434 168.436 22.9409C168.871 22.6385 169.117 22.1846 169.173 21.5792C169.23 20.9631 169.062 20.4602 168.67 20.0703C168.279 19.6698 167.727 19.4365 167.015 19.3706L164.498 19.1372L164.135 23.0564L166.7 23.2942ZM172.319 19.4123C172.419 18.329 172.754 17.3798 173.322 16.5648C173.891 15.7391 174.618 15.1209 175.502 14.7102C176.397 14.3004 177.36 14.1432 178.39 14.2387C179.601 14.351 180.631 14.7411 181.479 15.4089C182.328 16.0768 182.91 16.9663 183.225 18.0774L181.488 17.9164C181.242 17.2187 180.844 16.6623 180.293 16.247C179.753 15.8327 179.079 15.5881 178.272 15.5133C177.497 15.4414 176.784 15.5575 176.135 15.8615C175.485 16.1655 174.954 16.6358 174.542 17.2724C174.13 17.8984 173.883 18.6575 173.8 19.5497C173.719 20.4313 173.822 21.2228 174.11 21.9245C174.4 22.6155 174.836 23.1701 175.418 23.5883C176.001 24.0066 176.68 24.2516 177.455 24.3235C178.262 24.3983 178.969 24.2871 179.575 23.9898C180.193 23.6828 180.687 23.209 181.057 22.5685L182.793 22.7295C182.281 23.7532 181.546 24.5153 180.589 25.0157C179.633 25.5056 178.549 25.6944 177.339 25.5821C176.308 25.4866 175.391 25.1605 174.585 24.6037C173.791 24.0374 173.19 23.3014 172.781 22.3958C172.372 21.4902 172.218 20.4957 172.319 19.4123ZM194.989 21.3535C195.387 21.4547 195.738 21.6533 196.043 21.9493C196.358 22.2464 196.593 22.6002 196.748 23.0109C196.913 23.4226 196.975 23.8515 196.934 24.2976C196.882 24.8605 196.691 25.357 196.362 25.7872C196.034 26.2067 195.581 26.5236 195.004 26.7379C194.439 26.9426 193.785 27.0105 193.041 26.9415L188.899 26.5575L189.928 15.4531L193.911 15.8224C194.665 15.8923 195.296 16.0793 195.804 16.3835C196.312 16.677 196.679 17.0485 196.905 17.4979C197.132 17.9474 197.22 18.4377 197.171 18.9687C197.11 19.6272 196.878 20.1575 196.477 20.5595C196.087 20.9518 195.591 21.2165 194.989 21.3535ZM190.934 20.383L193.371 20.609C194.051 20.672 194.591 20.5614 194.993 20.2772C195.394 19.9931 195.621 19.5695 195.673 19.0066C195.725 18.4437 195.58 17.9857 195.238 17.6326C194.896 17.2795 194.374 17.0704 193.673 17.0054L191.267 16.7824L190.934 20.383ZM193.024 25.7348C193.747 25.8018 194.325 25.684 194.76 25.3816C195.196 25.0791 195.441 24.6252 195.497 24.0198C195.554 23.4038 195.387 22.9008 194.995 22.5109C194.603 22.1104 194.052 21.8772 193.34 21.8112L190.823 21.5778L190.459 25.497L193.024 25.7348ZM200.797 20.2851C201.098 19.8096 201.496 19.4554 201.988 19.2226C202.492 18.9907 203.084 18.9063 203.763 18.9693L203.625 20.4669L203.242 20.4315C201.617 20.2808 200.723 21.087 200.559 22.8501L200.119 27.5978L198.67 27.4634L199.479 18.7328L200.929 18.8672L200.797 20.2851ZM204.479 23.567C204.561 22.6748 204.814 21.9109 205.238 21.2753C205.662 20.629 206.204 20.149 206.865 19.8354C207.537 19.5228 208.261 19.4024 209.036 19.4742C209.801 19.5451 210.449 19.7713 210.982 20.1528C211.514 20.5342 211.895 20.9873 212.125 21.5121L212.273 19.919L213.739 20.0549L212.929 28.7854L211.463 28.6495L211.614 27.0245C211.28 27.5077 210.81 27.8927 210.205 28.1794C209.612 28.4564 208.938 28.56 208.184 28.4901C207.409 28.4182 206.725 28.162 206.134 27.7216C205.543 27.2811 205.099 26.699 204.802 25.9751C204.505 25.2513 204.397 24.4486 204.479 23.567ZM211.87 24.2683C211.931 23.6098 211.851 23.0239 211.631 22.5108C211.411 21.9976 211.084 21.5923 210.651 21.2951C210.229 20.9882 209.748 20.8097 209.206 20.7594C208.664 20.7092 208.159 20.7909 207.689 21.0044C207.219 21.218 206.829 21.5567 206.518 22.0207C206.207 22.4846 206.021 23.0459 205.96 23.7044C205.898 24.3735 205.977 24.97 206.196 25.4938C206.416 26.007 206.737 26.417 207.159 26.7239C207.581 27.0202 208.063 27.1934 208.605 27.2436C209.147 27.2939 209.652 27.2122 210.122 26.9986C210.603 26.7755 210.999 26.4319 211.31 25.9679C211.622 25.4934 211.809 24.9268 211.87 24.2683ZM218.457 29.4425C217.787 29.3805 217.198 29.2133 216.687 28.941C216.178 28.6581 215.788 28.3006 215.517 27.8684C215.248 27.4256 215.122 26.9373 215.139 26.4032L216.637 26.5421C216.639 26.9815 216.807 27.356 217.143 27.6656C217.489 27.9763 217.96 28.1591 218.554 28.2143C219.107 28.2655 219.553 28.1837 219.895 27.969C220.236 27.7542 220.424 27.461 220.458 27.0892C220.494 26.7069 220.35 26.4097 220.027 26.1976C219.705 25.9749 219.196 25.7403 218.501 25.4938C217.869 25.2638 217.354 25.0446 216.955 24.8362C216.569 24.6183 216.242 24.3255 215.976 23.9581C215.722 23.581 215.621 23.111 215.673 22.5481C215.714 22.102 215.885 21.7054 216.185 21.3583C216.485 21.0112 216.889 20.754 217.398 20.5869C217.907 20.4092 218.475 20.3493 219.101 20.4074C220.068 20.4971 220.826 20.8137 221.375 21.3574C221.925 21.9011 222.181 22.5998 222.145 23.4534L220.695 23.319C220.706 22.8594 220.554 22.4757 220.24 22.168C219.936 21.8614 219.503 21.6819 218.94 21.6297C218.419 21.5815 217.995 21.6546 217.666 21.8491C217.337 22.0436 217.156 22.3214 217.123 22.6825C217.096 22.9693 217.164 23.2166 217.327 23.4245C217.502 23.6228 217.722 23.7932 217.987 23.9356C218.264 24.0684 218.645 24.227 219.132 24.4114C219.743 24.6394 220.237 24.8566 220.614 25.063C220.992 25.2587 221.304 25.534 221.55 25.8889C221.806 26.2447 221.915 26.6887 221.876 27.2207C221.832 27.6987 221.659 28.1165 221.358 28.4742C221.057 28.832 220.652 29.0997 220.143 29.2775C219.645 29.4456 219.083 29.5006 218.457 29.4425ZM225.392 19.7052C225.116 19.6796 224.892 19.5624 224.718 19.3535C224.545 19.1446 224.471 18.902 224.496 18.6259C224.522 18.3497 224.639 18.1249 224.848 17.9515C225.057 17.778 225.299 17.7041 225.576 17.7297C225.841 17.7543 226.055 17.8706 226.218 18.0785C226.392 18.2874 226.466 18.5299 226.44 18.8061C226.414 19.0822 226.297 19.307 226.088 19.4805C225.89 19.6549 225.658 19.7298 225.392 19.7052ZM225.962 21.1881L225.153 29.9187L223.703 29.7843L224.512 21.0537L225.962 21.1881ZM230.166 18.4927L229.073 30.2822L227.623 30.1478L228.716 18.3583L230.166 18.4927ZM239.302 31.343C238.569 31.2751 237.923 31.0866 237.362 30.7775C236.813 30.4588 236.395 30.0558 236.108 29.5686C235.822 29.0707 235.702 28.5186 235.748 27.9122L237.293 28.0555C237.298 28.5809 237.469 29.0413 237.808 29.4369C238.158 29.8229 238.694 30.0493 239.416 30.1163C240.106 30.1803 240.664 30.0606 241.088 29.7571C241.524 29.4441 241.767 29.0167 241.818 28.475C241.857 28.0502 241.772 27.6941 241.563 27.4069C241.354 27.1198 241.081 26.8909 240.743 26.7203C240.405 26.5497 239.946 26.3572 239.366 26.1428C238.651 25.8836 238.08 25.6378 237.651 25.4053C237.233 25.1737 236.884 24.8414 236.603 24.4082C236.333 23.9654 236.23 23.3989 236.294 22.7085C236.351 22.1031 236.554 21.581 236.906 21.1422C237.257 20.7034 237.721 20.3822 238.296 20.1785C238.883 19.9758 239.537 19.9079 240.26 19.9749C241.301 20.0714 242.126 20.4104 242.736 20.9919C243.357 21.5743 243.67 22.2997 243.675 23.1678L242.082 23.0201C242.069 22.5904 241.88 22.198 241.517 21.8429C241.154 21.4772 240.649 21.2643 240.001 21.2043C239.396 21.1481 238.887 21.2616 238.475 21.5448C238.064 21.8174 237.833 22.2351 237.78 22.7981C237.743 23.2017 237.824 23.5413 238.023 23.8168C238.233 24.0934 238.497 24.316 238.813 24.4846C239.141 24.6436 239.6 24.8361 240.19 25.0621C240.904 25.3319 241.475 25.5883 241.902 25.8315C242.33 26.064 242.685 26.4022 242.965 26.846C243.246 27.2791 243.354 27.8462 243.289 28.5472C243.239 29.0888 243.048 29.5854 242.717 30.0367C242.386 30.4881 241.925 30.8364 241.335 31.0816C240.744 31.3268 240.067 31.4139 239.302 31.343ZM245.595 31.9104C245.319 31.8848 245.094 31.7676 244.921 31.5586C244.747 31.3497 244.673 31.1072 244.699 30.8311C244.725 30.5549 244.842 30.3301 245.051 30.1567C245.26 29.9832 245.502 29.9093 245.778 29.9349C246.044 29.9595 246.258 30.0758 246.421 30.2837C246.594 30.4926 246.668 30.7351 246.643 31.0113C246.617 31.2874 246.5 31.5122 246.291 31.6857C246.093 31.8601 245.861 31.935 245.595 31.9104ZM255.28 30.2213L250.437 29.7722L249.316 32.1589L247.786 32.0171L252.825 21.3487L254.497 21.5038L257.473 32.9152L255.943 32.7734L255.28 30.2213ZM254.975 29.0039L253.488 23.2099L250.96 28.6317L254.975 29.0039ZM259.675 33.2158C259.399 33.1902 259.175 33.073 259.001 32.8641C258.828 32.6552 258.754 32.4126 258.779 32.1365C258.805 31.8603 258.922 31.6355 259.131 31.4621C259.34 31.2886 259.582 31.2147 259.859 31.2403C260.124 31.2649 260.338 31.3812 260.501 31.5891C260.675 31.798 260.749 32.0405 260.723 32.3167C260.697 32.5928 260.58 32.8176 260.371 32.9911C260.173 33.1655 259.941 33.2405 259.675 33.2158ZM94.4742 40.733C95.9235 39.7747 97.0625 38.9858 97.8912 38.3663C98.7209 37.7362 99.431 37.0682 100.021 36.3624C100.623 35.6469 100.958 34.9227 101.026 34.1899C101.09 33.4995 100.97 32.9421 100.667 32.5176C100.375 32.0835 99.8575 31.8319 99.1141 31.763C98.3918 31.696 97.8077 31.8722 97.3618 32.2915C96.9274 32.7011 96.6594 33.2815 96.5576 34.0327L95.1556 33.9027C95.3084 32.7171 95.7547 31.8318 96.4945 31.247C97.2343 30.6621 98.1406 30.4194 99.2133 30.5189C100.307 30.6203 101.145 31.0032 101.726 31.6677C102.318 32.3332 102.564 33.197 102.466 34.2591C102.384 35.1407 102.039 35.9763 101.43 36.7662C100.833 37.5464 100.17 38.2241 99.4419 38.7993C98.7147 39.3639 97.7917 40.0175 96.673 40.7601L102.154 41.2682L102.041 42.479L94.3781 41.7685L94.4742 40.733ZM106.364 36.9665C105.791 36.6777 105.365 36.2955 105.088 35.8198C104.811 35.3442 104.702 34.7878 104.761 34.1505C104.814 33.577 105.005 33.0751 105.334 32.645C105.664 32.2043 106.123 31.8772 106.711 31.6639C107.31 31.4409 108.013 31.3668 108.82 31.4417C109.628 31.5165 110.3 31.7181 110.837 32.0465C111.386 32.3652 111.782 32.7715 112.026 33.2654C112.281 33.7497 112.382 34.2786 112.328 34.8521C112.271 35.4681 112.056 35.9946 111.684 36.4314C111.312 36.8575 110.829 37.1556 110.235 37.3254C110.875 37.5883 111.362 37.9923 111.698 38.5376C112.044 39.0732 112.185 39.6969 112.119 40.4085C112.055 41.0988 111.829 41.6885 111.44 42.1774C111.053 42.6557 110.533 43.0092 109.88 43.2379C109.238 43.4569 108.514 43.529 107.707 43.4542C106.899 43.3793 106.201 43.1753 105.61 42.842C105.031 42.4991 104.596 42.057 104.303 41.5157C104.011 40.9637 103.898 40.3426 103.962 39.6522C104.028 38.9406 104.275 38.3476 104.705 37.8732C105.135 37.3989 105.688 37.0966 106.364 36.9665ZM110.91 34.8974C110.97 34.2495 110.804 33.7306 110.412 33.3407C110.019 32.9508 109.452 32.7214 108.708 32.6525C107.975 32.5845 107.38 32.7061 106.923 33.0172C106.465 33.3283 106.206 33.8132 106.145 34.4717C106.09 35.0664 106.263 35.5646 106.665 35.9661C107.078 36.3685 107.635 36.6023 108.336 36.6673C109.047 36.7333 109.638 36.6059 110.107 36.2851C110.587 35.9547 110.855 35.4922 110.91 34.8974ZM108.232 37.7825C107.446 37.7096 106.787 37.8359 106.253 38.1614C105.72 38.4762 105.42 39.0001 105.352 39.7329C105.289 40.4127 105.477 40.9818 105.917 41.4403C106.367 41.8999 107.001 42.1675 107.819 42.2434C108.637 42.3192 109.304 42.1721 109.82 41.8022C110.336 41.4323 110.626 40.9075 110.689 40.2277C110.755 39.5161 110.561 38.9518 110.107 38.5348C109.654 38.1071 109.029 37.8563 108.232 37.7825ZM114.448 43.8542C114.172 43.8286 113.947 43.7114 113.774 43.5025C113.6 43.2936 113.526 43.0511 113.552 42.7749C113.578 42.4988 113.695 42.274 113.904 42.1005C114.113 41.927 114.355 41.8531 114.631 41.8787C114.897 41.9033 115.111 42.0196 115.274 42.2275C115.447 42.4364 115.521 42.679 115.496 42.9551C115.47 43.2313 115.353 43.4561 115.144 43.6295C114.946 43.804 114.714 43.8789 114.448 43.8542ZM117.664 33.7721L117.787 32.4497L120.782 32.7274L119.714 44.246L118.248 44.1101L119.193 33.9139L117.664 33.7721ZM124.355 41.559C124.405 42.1742 124.606 42.6642 124.958 43.0289C125.32 43.3946 125.831 43.608 126.489 43.669C127.371 43.7508 128.051 43.4657 128.529 42.8137C129.018 42.1627 129.327 41.0184 129.458 39.3808C129.19 39.838 128.784 40.1806 128.238 40.4085C127.692 40.6258 127.101 40.7049 126.464 40.6458C125.752 40.5798 125.128 40.3774 124.592 40.0384C124.067 39.6898 123.672 39.2193 123.405 38.6268C123.139 38.0344 123.043 37.3398 123.117 36.5433C123.222 35.4068 123.636 34.5239 124.358 33.8946C125.082 33.2547 126.049 32.9908 127.26 33.1031C128.747 33.2409 129.743 33.8207 130.248 34.8424C130.764 35.865 130.933 37.3322 130.756 39.244C130.632 40.5823 130.407 41.6756 130.082 42.5239C129.768 43.3731 129.303 43.9995 128.687 44.4031C128.081 44.8076 127.285 44.964 126.297 44.8725C125.214 44.772 124.397 44.4017 123.845 43.7614C123.294 43.1211 123.018 42.3456 123.016 41.4349L124.355 41.559ZM126.817 39.4412C127.528 39.5072 128.133 39.3436 128.63 38.9505C129.128 38.5468 129.412 37.9679 129.482 37.2138C129.556 36.4172 129.392 35.7539 128.991 35.224C128.591 34.6941 127.987 34.3917 127.179 34.3168C126.436 34.2479 125.819 34.4264 125.33 34.8524C124.851 35.2793 124.576 35.8752 124.506 36.6399C124.434 37.4152 124.594 38.0568 124.986 38.5645C125.378 39.0722 125.988 39.3644 126.817 39.4412ZM140.535 35.8282L134.943 35.3098L134.606 38.9422C134.882 38.625 135.269 38.3823 135.766 38.2142C136.265 38.0355 136.79 37.9717 137.343 38.0229C138.224 38.1046 138.924 38.357 139.442 38.7799C139.961 39.1923 140.31 39.7013 140.489 40.3072C140.68 40.9033 140.746 41.5254 140.686 42.1733C140.615 42.938 140.408 43.6098 140.065 44.1886C139.722 44.7674 139.237 45.2045 138.61 45.4998C137.993 45.7962 137.249 45.904 136.379 45.8232C135.263 45.7198 134.387 45.3493 133.75 44.7118C133.113 44.0742 132.764 43.2706 132.704 42.3009L134.122 42.4324C134.204 43.0506 134.452 43.5503 134.867 43.9316C135.281 44.3128 135.828 44.5349 136.508 44.5979C137.347 44.6757 138.002 44.4847 138.474 44.0249C138.946 43.5545 139.22 42.9051 139.297 42.0766C139.374 41.2482 139.22 40.5912 138.837 40.1057C138.454 39.6096 137.849 39.3232 137.02 39.2464C136.458 39.1942 135.951 39.2865 135.5 39.5232C135.062 39.7504 134.725 40.0887 134.49 40.5383L133.12 40.4113L133.723 33.9112L140.653 34.5537L140.535 35.8282ZM142.935 46.4954C142.659 46.4698 142.434 46.3525 142.261 46.1436C142.088 45.9347 142.014 45.6922 142.039 45.416C142.065 45.1399 142.182 44.9151 142.391 44.7416C142.6 44.5682 142.842 44.4943 143.119 44.5199C143.384 44.5445 143.598 44.6608 143.761 44.8687C143.935 45.0776 144.008 45.3201 143.983 45.5963C143.957 45.8724 143.84 46.0972 143.631 46.2707C143.433 46.4451 143.201 46.52 142.935 46.4954ZM152.823 38.4618C152.698 37.2612 152.025 36.6043 150.804 36.4911C149.859 36.4034 149.118 36.7044 148.583 37.3939C148.049 38.0728 147.71 39.2465 147.566 40.915C147.861 40.3854 148.305 39.9926 148.896 39.7368C149.499 39.4714 150.151 39.3711 150.852 39.4361C151.946 39.5375 152.786 39.9582 153.371 40.698C153.966 41.4388 154.208 42.4093 154.097 43.6095C154.03 44.3317 153.826 44.9663 153.486 45.5132C153.157 46.0612 152.69 46.4785 152.085 46.7652C151.49 47.0529 150.79 47.1593 149.982 47.0845C148.888 46.983 148.056 46.6595 147.485 46.1138C146.915 45.5681 146.547 44.8538 146.383 43.9708C146.218 43.0879 146.194 42.0144 146.312 40.7505C146.673 36.8526 148.213 35.0297 150.932 35.2817C151.973 35.3782 152.765 35.7355 153.307 36.3536C153.85 36.9717 154.134 37.7158 154.161 38.5859L152.823 38.4618ZM150.436 40.6348C149.979 40.5924 149.54 40.6482 149.119 40.8019C148.698 40.9451 148.343 41.196 148.053 41.5547C147.774 41.9038 147.609 42.3492 147.559 42.8909C147.484 43.6981 147.657 44.3782 148.077 44.9314C148.498 45.4739 149.144 45.7855 150.015 45.8663C150.759 45.9352 151.369 45.7615 151.847 45.3452C152.336 44.9192 152.618 44.3132 152.69 43.5273C152.767 42.6988 152.615 42.0312 152.233 41.5245C151.853 41.0072 151.254 40.7106 150.436 40.6348ZM162.935 39.3994C162.811 38.1988 162.138 37.5419 160.917 37.4287C159.972 37.341 159.231 37.642 158.696 38.3315C158.162 39.0104 157.823 40.1841 157.679 41.8526C157.974 41.323 158.418 40.9302 159.009 40.6744C159.612 40.409 160.264 40.3087 160.965 40.3737C162.059 40.4751 162.899 40.8958 163.483 41.6356C164.079 42.3764 164.321 43.3469 164.21 44.5471C164.143 45.2693 163.939 45.9039 163.599 46.4508C163.27 46.9988 162.803 47.4161 162.198 47.7028C161.603 47.9905 160.903 48.0969 160.095 48.0221C159.001 47.9206 158.169 47.5971 157.598 47.0514C157.028 46.5057 156.66 45.7914 156.495 44.9084C156.331 44.0255 156.307 42.952 156.424 41.6881C156.786 37.7902 158.326 35.9673 161.045 36.2193C162.086 36.3158 162.878 36.6731 163.42 37.2912C163.963 37.9093 164.247 38.6534 164.274 39.5235L162.935 39.3994ZM160.549 41.5724C160.092 41.53 159.653 41.5858 159.232 41.7395C158.811 41.8827 158.456 42.1336 158.166 42.4923C157.887 42.8414 157.722 43.2868 157.672 43.8285C157.597 44.6357 157.77 45.3158 158.19 45.869C158.611 46.4115 159.257 46.7231 160.128 46.8039C160.871 46.8728 161.482 46.6991 161.96 46.2828C162.449 45.8568 162.73 45.2508 162.803 44.4649C162.88 43.6364 162.728 42.9688 162.346 42.4621C161.966 41.9448 161.367 41.6482 160.549 41.5724ZM173.867 38.79L168.475 48.7668L167.009 48.6309L172.451 38.8034L166.302 38.2332L166.417 36.9906L173.969 37.6907L173.867 38.79ZM181.558 34.8432L175.55 52.1545L174.117 52.0216L180.108 34.7088L181.558 34.8432ZM182.633 44.1502C182.802 42.3233 183.232 40.9277 183.921 39.9632C184.611 38.9881 185.7 38.5695 187.187 38.7073C188.663 38.8442 189.651 39.4553 190.15 40.5407C190.651 41.6155 190.816 43.0663 190.647 44.8931C190.474 46.7518 190.043 48.1687 189.353 49.1438C188.662 50.1189 187.579 50.5381 186.103 50.4012C184.616 50.2633 183.623 49.6517 183.123 48.5663C182.624 47.4809 182.461 46.0089 182.633 44.1502ZM189.213 44.7602C189.298 43.8362 189.307 43.0496 189.239 42.4005C189.182 41.7418 188.981 41.1982 188.635 40.7698C188.299 40.3423 187.776 40.0956 187.064 40.0297C186.342 39.9627 185.772 40.108 185.353 40.4655C184.945 40.824 184.647 41.3213 184.459 41.9574C184.283 42.5838 184.153 43.3591 184.067 44.2831C183.978 45.239 183.962 46.0463 184.019 46.705C184.086 47.3647 184.288 47.9083 184.623 48.3358C184.969 48.7642 185.503 49.0119 186.225 49.0788C186.937 49.1448 187.497 48.9986 187.905 48.64C188.324 48.2825 188.622 47.7852 188.799 47.1482C188.986 46.5121 189.124 45.7161 189.213 44.7602ZM192.637 45.0777C192.806 43.2508 193.236 41.8552 193.925 40.8907C194.615 39.9156 195.704 39.497 197.191 39.6348C198.667 39.7717 199.655 40.3828 200.154 41.4682C200.655 42.543 200.82 43.9938 200.651 45.8206C200.478 47.6793 200.047 49.0962 199.357 50.0713C198.666 51.0464 197.583 51.4656 196.107 51.3287C194.62 51.1908 193.627 50.5792 193.127 49.4938C192.628 48.4084 192.465 46.9364 192.637 45.0777ZM199.217 45.6877C199.302 44.7637 199.311 43.9771 199.243 43.328C199.186 42.6693 198.985 42.1257 198.639 41.6973C198.303 41.2698 197.78 41.0231 197.068 40.9572C196.346 40.8902 195.776 41.0355 195.357 41.393C194.949 41.7515 194.651 42.2488 194.463 42.8849C194.287 43.5113 194.157 44.2866 194.071 45.2106C193.982 46.1665 193.966 46.9738 194.023 47.6325C194.09 48.2922 194.292 48.8358 194.627 49.2633C194.973 49.6917 195.507 49.9394 196.229 50.0063C196.941 50.0723 197.501 49.9261 197.909 49.5675C198.328 49.21 198.626 48.7127 198.803 48.0757C198.99 47.4396 199.128 46.6436 199.217 45.6877ZM202.641 46.0052C202.81 44.1783 203.24 42.7827 203.929 41.8182C204.619 40.8431 205.708 40.4245 207.195 40.5623C208.671 40.6992 209.659 41.3103 210.158 42.3957C210.659 43.4705 210.824 44.9213 210.655 46.7481C210.482 48.6068 210.051 50.0237 209.361 50.9988C208.67 51.9739 207.587 52.3931 206.111 52.2562C204.624 52.1183 203.631 51.5067 203.131 50.4213C202.632 49.3359 202.469 47.8639 202.641 46.0052ZM209.221 46.6152C209.306 45.6912 209.315 44.9046 209.247 44.2555C209.19 43.5968 208.989 43.0532 208.643 42.6248C208.307 42.1973 207.784 41.9506 207.072 41.8847C206.35 41.8177 205.78 41.963 205.361 42.3205C204.953 42.679 204.655 43.1763 204.467 43.8124C204.291 44.4388 204.161 45.2141 204.075 46.1381C203.986 47.094 203.97 47.9013 204.027 48.56C204.094 49.2197 204.296 49.7633 204.631 50.1908C204.977 50.6192 205.511 50.8669 206.233 50.9339C206.945 50.9998 207.505 50.8536 207.913 50.495C208.332 50.1375 208.63 49.6402 208.807 49.0032C208.994 48.3671 209.132 47.5711 209.221 46.6152ZM212.663 42.5797L212.785 41.2574L215.781 41.5351L214.713 53.0537L213.247 52.9178L214.192 42.7215L212.663 42.5797ZM224.094 47.4157L223.981 48.6424L217.624 48.0531L217.738 46.8264L224.094 47.4157ZM226.523 48.2193C226.692 46.3925 227.122 44.9969 227.811 44.0324C228.501 43.0573 229.59 42.6386 231.077 42.7765C232.553 42.9134 233.541 43.5245 234.04 44.6099C234.54 45.6847 234.706 47.1355 234.537 48.9623C234.364 50.821 233.933 52.2379 233.243 53.213C232.552 54.1881 231.469 54.6072 229.993 54.4704C228.506 54.3325 227.513 53.7209 227.013 52.6355C226.514 51.5501 226.351 50.078 226.523 48.2193ZM233.103 48.8294C233.188 47.9053 233.197 47.1188 233.129 46.4697C233.072 45.811 232.871 45.2674 232.525 44.839C232.189 44.4115 231.666 44.1648 230.954 44.0988C230.232 44.0319 229.662 44.1772 229.243 44.5347C228.835 44.8932 228.537 45.3905 228.349 46.0266C228.173 46.653 228.042 47.4282 227.957 48.3523C227.868 49.3082 227.852 50.1155 227.909 50.7742C227.976 51.4339 228.178 51.9775 228.513 52.4049C228.859 52.8334 229.393 53.0811 230.115 53.148C230.827 53.214 231.387 53.0677 231.795 52.7092C232.214 52.3517 232.512 51.8544 232.688 51.2173C232.876 50.5813 233.014 49.7853 233.103 48.8294ZM243.216 46.8425C243.092 45.6419 242.419 44.985 241.198 44.8718C240.252 44.7841 239.512 45.0851 238.977 45.7746C238.442 46.4535 238.103 47.6272 237.959 49.2957C238.255 48.7661 238.698 48.3733 239.29 48.1175C239.893 47.8521 240.545 47.7518 241.246 47.8168C242.34 47.9182 243.179 48.3389 243.764 49.0787C244.36 49.8195 244.602 50.79 244.49 51.9902C244.423 52.7124 244.22 53.347 243.88 53.8939C243.551 54.4419 243.084 54.8592 242.479 55.1459C241.884 55.4336 241.183 55.54 240.376 55.4652C239.282 55.3637 238.45 55.0402 237.879 54.4945C237.308 53.9488 236.941 53.2345 236.776 52.3515C236.612 51.4686 236.588 50.3951 236.705 49.1312C237.066 45.2333 238.607 43.4104 241.326 43.6624C242.367 43.7589 243.158 44.1162 243.701 44.7343C244.243 45.3524 244.528 46.0965 244.554 46.9666L243.216 46.8425ZM240.829 49.0155C240.373 48.9731 239.934 49.0289 239.512 49.1826C239.092 49.3258 238.737 49.5767 238.446 49.9354C238.168 50.2845 238.003 50.7299 237.953 51.2716C237.878 52.0788 238.051 52.7589 238.471 53.3121C238.892 53.8546 239.538 54.1662 240.409 54.247C241.152 54.3159 241.763 54.1422 242.241 53.7259C242.73 53.2999 243.011 52.6939 243.084 51.908C243.161 51.0795 243.008 50.4119 242.627 49.9052C242.246 49.3879 241.647 49.0913 240.829 49.0155Z" fill="black"/>
</svg>
