<svg width="37" height="37" viewBox="0 0 37 37" fill="none" xmlns="http://www.w3.org/2000/svg">
<g clip-path="url(#clip0_4018_6)">
<path fill-rule="evenodd" clip-rule="evenodd" d="M12.7781 27.5453L6.88917 15.9378H5.77817L0 27.5453V4.0469C0 1.98765 1.6823 0.303284 3.73902 0.303284H33.3717C35.3757 0.303284 37 1.92957 37 3.93602V17.3071C35.1841 15.8234 33.6284 15.6386 32.2959 15.6386C28.3705 15.6386 25.1114 18.4582 25.1114 22.9075C25.1114 24.7996 25.7038 26.2833 26.741 27.5435H24.1112C24.4083 27.063 24.6298 26.3572 24.6298 25.6532C24.6298 23.7612 23.6295 22.8354 23.074 22.427C23.7051 21.6843 23.9635 21.0912 23.9635 19.9049C23.9635 17.2737 22.0755 15.9378 19.6672 15.9378H13.149V27.5453H12.7781ZM28.1367 6.33318C27.8256 6.51096 27.5813 6.75912 27.4054 7.07416H27.4037C27.2279 7.39098 27.14 7.74123 27.14 8.12671C27.14 8.53677 27.2244 8.89583 27.3914 9.20558C27.5602 9.51537 27.7975 9.75473 28.1086 9.9237C28.418 10.0927 28.796 10.1772 29.1879 10.1772C29.5799 10.1772 29.9315 10.0892 30.2427 9.91138C30.5538 9.73361 30.7964 9.48896 30.9722 9.17565C31.148 8.86239 31.2359 8.53148 31.2359 8.12142C31.2359 7.71131 31.1515 7.35052 30.9845 7.03899C30.8157 6.72746 30.5784 6.4881 30.2673 6.31913C29.9579 6.15016 29.5975 6.06568 29.1879 6.06568C28.7995 6.06568 28.4496 6.15368 28.1367 6.33318ZM23.3359 6.32967C23.0143 6.50745 22.7611 6.75383 22.5765 7.06891L22.573 7.06714C22.3884 7.38217 22.297 7.73946 22.297 8.13725C22.297 8.55967 22.3779 8.92224 22.5396 9.22848C22.7014 9.53298 22.9316 9.76705 23.2323 9.93073C23.5328 10.0944 23.8844 10.1754 24.2905 10.1754C24.5348 10.1754 24.7669 10.1525 24.9883 10.1085C25.2098 10.0645 25.4015 10.0029 25.5632 9.92721V9.22145C25.3979 9.29358 25.2309 9.34818 25.0604 9.38162C24.8899 9.41506 24.6965 9.43262 24.4768 9.43262C24.1991 9.43262 23.9653 9.37984 23.7754 9.27245C23.5856 9.16689 23.4432 9.01549 23.3482 8.82015C23.2533 8.62655 23.2059 8.3907 23.2059 8.13022C23.2059 7.86974 23.2603 7.63741 23.3676 7.43673C23.4748 7.2361 23.6295 7.08123 23.8352 6.97033C24.0409 6.85944 24.2835 6.80488 24.5647 6.80488C24.751 6.80488 24.9163 6.82075 25.0639 6.85241C25.2116 6.88585 25.3646 6.93512 25.5263 7.00377V6.29272C25.3698 6.21353 25.2011 6.15546 25.0235 6.11846C24.846 6.08151 24.6456 6.0639 24.4223 6.0639C24.0198 6.0639 23.6594 6.1519 23.3359 6.32967ZM17.5156 6.15016H16.6736V10.0944H17.4734V7.42971L19.4651 10.0944H20.3212V6.15016H19.5143V8.85181L17.5156 6.15016ZM13.3723 6.15016H12.3246L10.6985 10.0944H11.6108L11.9765 9.10526H13.6324L13.9928 10.0944H14.942L13.3723 6.15016ZM6.53233 6.12024C6.29676 6.13256 6.06996 6.1519 5.8555 6.18009V6.18534V10.0979H7.44463C8.05641 10.0979 8.50292 10.0047 8.78417 9.81987C9.06541 9.63503 9.20606 9.34289 9.20606 8.9451C9.20606 8.75501 9.1533 8.58253 9.04782 8.42587C8.94235 8.26927 8.79472 8.14254 8.60488 8.04574C8.73319 7.94542 8.82984 7.8275 8.89316 7.69548C8.9582 7.56173 8.98981 7.41388 8.98981 7.24842C8.98981 6.8577 8.84743 6.56903 8.56267 6.3825C8.27791 6.19592 7.83139 6.10263 7.22843 6.10263C6.9999 6.10263 6.76785 6.10792 6.53233 6.12024ZM32.2959 18.0146C33.2223 18.0146 34.0749 18.0516 35.7782 19.2748V19.2766L37 17.7559V27.0683L35.7782 25.9876C34.6655 27.1739 33.5545 27.5453 32.2959 27.5453C29.5536 27.5453 27.6656 25.6163 27.6656 22.9093C27.6656 20.0175 29.5553 18.0146 32.2959 18.0146ZM15.5924 22.2792V18.3121H19.3701C20.8151 18.3121 21.5183 18.7943 21.5183 19.9436C21.5183 21.0929 20.8151 21.5752 19.3701 21.5752C17.6299 21.5752 16.445 21.5752 15.5924 22.2792ZM4.79726 33.0137C5.2508 32.711 5.43891 32.1812 5.43891 31.6902C5.43891 30.0252 4.00271 29.6855 2.4171 29.6855C1.43444 29.6855 0.792805 29.7242 0 29.8369V36.6447H2.71945C4.34374 36.6447 5.89246 36.305 5.89246 34.5643C5.89246 33.9219 5.402 33.3534 4.79726 33.0137ZM1.59771 30.8359C1.90829 30.807 2.17623 30.782 2.41885 30.782C3.21166 30.782 4.11873 30.8964 4.11873 31.7271C4.11873 32.5579 2.83372 32.5966 2.1165 32.5966H1.3606V30.8577C1.44144 30.8504 1.51948 30.8432 1.59497 30.8362L1.5969 30.836L1.59771 30.8359ZM2.49269 35.5482H1.35885V33.6949H2.11474C2.98313 33.6949 3.32416 33.6192 3.73902 33.5065C4.0783 33.6949 4.45624 33.9606 4.45624 34.5661C4.45624 35.5499 3.24682 35.5499 2.49269 35.5499V35.5482ZM33.936 29.8351H32.5526V36.6447H37V35.4848H33.936V29.8351ZM9.62973 29.6855C11.5563 29.6855 12.917 30.1396 12.917 31.9172L12.9152 31.9137C12.9152 32.7849 12.5003 33.4273 11.6688 33.8057L13.2562 36.6429H11.7831L10.3487 34.1472C10.3148 34.1472 10.1822 34.155 10.036 34.1636L10.035 34.1636C9.85548 34.1742 9.65568 34.1859 9.59278 34.1859H8.61013V36.6447H7.21262V29.8369C8.00543 29.7224 8.64704 29.6855 9.62973 29.6855ZM8.61013 33.0894H9.43984C10.4981 33.0894 11.5177 32.9768 11.5177 31.9172C11.5177 31.009 10.7249 30.782 9.62973 30.782C9.36602 30.782 8.98808 30.8189 8.61013 30.8577V33.0894ZM30.5714 29.8351H29.2266V36.6447H30.5714V29.8351ZM24.178 32.4699L25.6423 32.6952L25.6441 32.6987C27.0714 32.924 27.6358 33.489 27.6358 34.6541C27.6358 36.0463 26.697 36.7978 24.5928 36.7978C23.7297 36.7978 22.6398 36.5725 21.9261 36.1959V35.0308C22.7154 35.4074 23.6541 35.6327 24.5928 35.6327C25.3804 35.6327 26.3577 35.557 26.3577 34.7298C26.3577 34.2405 26.0941 33.9765 25.3804 33.8638L23.6524 33.5998C22.4886 33.4115 21.8875 32.7708 21.8875 31.7183C21.8875 30.2892 23.3904 29.6872 24.9304 29.6872C25.7566 29.6872 26.6197 29.8386 27.2965 30.1765V31.3804C26.5459 31.0407 25.7566 30.8154 24.9304 30.8154C24.178 30.8154 23.2392 30.9668 23.2392 31.7183C23.2392 32.1319 23.5399 32.3572 24.178 32.4699ZM16.6683 29.8351L13.8645 36.6447H15.2479L15.7331 35.4848C16.257 35.1856 16.8915 35.1117 17.5279 35.1117C18.1256 35.1117 18.7619 35.1856 19.284 35.4848L19.7692 36.6447H21.1527L18.3488 29.8351H16.6683ZM17.5279 33.9888C17.0427 33.9888 16.5927 34.1015 16.257 34.2141L17.5279 31.2203L18.7619 34.2141C18.4262 34.1015 17.9762 33.9888 17.5279 33.9888ZM6.37058 20.2024L3.14836 26.6917C3.92534 26.3203 5.11194 26.0615 6.37058 26.0615C7.62922 26.0615 8.85268 26.359 9.62968 26.7286L6.37058 20.2024ZM19.0379 23.7999C17.8531 23.7999 15.5942 23.9847 15.5942 25.5054V27.5453H19.8905C20.4829 27.5453 22.1124 27.3605 22.1124 25.655C22.1124 23.9495 20.7044 23.7999 19.0379 23.7999ZM8.24451 9.17565C8.31481 9.09468 8.34999 8.98734 8.34999 8.85008C8.34999 8.73389 8.31303 8.63179 8.23748 8.54558C8.16362 8.45931 8.06344 8.38541 7.94038 8.32556C7.69605 8.3819 7.42179 8.41004 7.11419 8.41004H6.687V9.40447H7.30051C7.55718 9.40447 7.76109 9.38686 7.91224 9.34991C8.06344 9.31296 8.17417 9.25485 8.24451 9.17565ZM29.1827 9.43613C28.9506 9.43613 28.7502 9.38335 28.578 9.27597V9.27775C28.4057 9.17041 28.2756 9.019 28.1842 8.82188C28.0928 8.62477 28.0471 8.39421 28.0471 8.12844C28.0471 7.8785 28.0963 7.65324 28.193 7.45256C28.2897 7.25193 28.425 7.09355 28.5991 6.97914C28.7731 6.86473 28.9717 6.80666 29.195 6.80666C29.4305 6.80666 29.6327 6.85944 29.8032 6.96682C29.972 7.07416 30.1021 7.22552 30.1935 7.42264C30.2849 7.6198 30.3306 7.85209 30.3306 8.12142C30.3306 8.37309 30.2813 8.60013 30.1847 8.79903C30.088 8.99788 29.9526 9.15453 29.7786 9.26721C29.6046 9.37984 29.4147 9.43613 29.1827 9.43613ZM7.68901 7.74124C7.84368 7.71309 7.96149 7.66204 8.03882 7.58814C8.11794 7.51419 8.15658 7.4121 8.15658 7.28364C8.15658 7.09533 8.07751 6.96331 7.91754 6.88936C7.75758 6.81546 7.53959 6.77851 7.2636 6.77851C7.06494 6.77851 6.87337 6.78731 6.687 6.80314V7.78699H7.0913C7.33568 7.78699 7.5343 7.77294 7.69075 7.74475L7.68901 7.74124ZM12.2472 8.40475L12.8238 6.87353L13.3828 8.40475H12.2472Z" fill="#A6874B"/>
</g>
<defs>
<clipPath id="clip0_4018_6">
<rect width="37" height="37" fill="white"/>
</clipPath>
</defs>
</svg>
