<svg width="72" height="72" viewBox="0 0 72 72" fill="none" xmlns="http://www.w3.org/2000/svg">
<path fill-rule="evenodd" clip-rule="evenodd" d="M24.8654 53.7457L13.406 30.8452H11.244L0 53.7457V7.38578C0 3.32308 3.27366 0 7.27594 0H64.9396C68.8392 0 72 3.20849 72 7.16701V33.5468C68.4664 30.6195 65.439 30.2549 62.846 30.2549C55.2076 30.2549 48.8654 35.8177 48.8654 44.5959C48.8654 48.3287 50.0182 51.256 52.0364 53.7421H46.919C47.4972 52.7943 47.9282 51.4018 47.9282 50.0128C47.9282 46.28 45.9818 44.4535 44.9008 43.6479C46.1289 42.1826 46.6317 41.0124 46.6317 38.672C46.6317 33.4808 42.9578 30.8452 38.2714 30.8452H25.5872V53.7457H24.8654ZM54.7525 11.8964C54.1471 12.2471 53.6716 12.7367 53.3295 13.3582H53.3261C52.984 13.9833 52.813 14.6743 52.813 15.4348C52.813 16.2438 52.9772 16.9522 53.3021 17.5633C53.6306 18.1745 54.0924 18.6467 54.6979 18.9801C55.2999 19.3135 56.0354 19.4801 56.7981 19.4801C57.561 19.4801 58.2452 19.3065 58.8507 18.9558C59.4561 18.6051 59.9282 18.1224 60.2702 17.5043C60.6124 16.8862 60.7834 16.2334 60.7834 15.4244C60.7834 14.6153 60.6191 13.9035 60.2942 13.2889C59.9658 12.6742 59.504 12.202 58.8985 11.8687C58.2964 11.5353 57.5952 11.3686 56.7981 11.3686C56.0422 11.3686 55.3614 11.5422 54.7525 11.8964ZM45.4105 11.8894C44.7845 12.2402 44.2919 12.7263 43.9327 13.3479L43.9259 13.3444C43.5667 13.9659 43.3888 14.6708 43.3888 15.4556C43.3888 16.289 43.5462 17.0043 43.8609 17.6085C44.1756 18.2093 44.6237 18.671 45.2087 18.994C45.7936 19.3169 46.4778 19.4766 47.268 19.4766C47.7435 19.4766 48.195 19.4315 48.626 19.3447C49.057 19.2578 49.4299 19.1363 49.7446 18.987V17.5946C49.423 17.7369 49.098 17.8447 48.7662 17.9106C48.4344 17.9766 48.0581 18.0113 47.6306 18.0113C47.09 18.0113 46.6351 17.9071 46.2657 17.6953C45.8963 17.487 45.6192 17.1883 45.4344 16.8029C45.2497 16.421 45.1573 15.9556 45.1573 15.4417C45.1573 14.9278 45.2634 14.4695 45.4721 14.0736C45.6807 13.6777 45.9818 13.3722 46.382 13.1534C46.7822 12.9346 47.2543 12.827 47.8016 12.827C48.1642 12.827 48.4858 12.8583 48.7731 12.9208C49.0604 12.9867 49.358 13.0839 49.6727 13.2194V11.8166C49.3683 11.6603 49.0399 11.5457 48.6944 11.4728C48.3489 11.3999 47.9589 11.3651 47.5245 11.3651C46.7412 11.3651 46.0399 11.5387 45.4105 11.8894ZM34.0844 11.5353H32.4459V19.3169H34.0023V14.0597L37.878 19.3169H39.5439V11.5353H37.9738V16.8654L34.0844 11.5353ZM26.0217 11.5353H23.9829L20.8187 19.3169H22.594L23.3056 17.3654H26.5279L27.2292 19.3169H29.0764L26.0217 11.5353ZM12.7116 11.4763C12.2532 11.5006 11.8118 11.5387 11.3945 11.5943V11.6047V19.3238H14.4868C15.6773 19.3238 16.5462 19.1399 17.0935 18.7753C17.6408 18.4106 17.9145 17.8342 17.9145 17.0494C17.9145 16.6744 17.8118 16.3341 17.6066 16.025C17.4013 15.7161 17.114 15.466 16.7446 15.2751C16.9943 15.0772 17.1824 14.8445 17.3056 14.584C17.4322 14.3202 17.4937 14.0285 17.4937 13.702C17.4937 12.9312 17.2166 12.3617 16.6625 11.9937C16.1084 11.6256 15.2395 11.4415 14.0661 11.4415C13.6214 11.4415 13.1699 11.452 12.7116 11.4763ZM62.846 34.9427C64.6488 34.9427 66.3078 35.0156 69.6225 37.4289V37.4323L71.9999 34.4322V52.8046L69.6225 50.6726C67.4572 53.013 65.2953 53.7457 62.846 53.7457C57.5097 53.7457 53.8357 49.9399 53.8357 44.5994C53.8357 38.8942 57.5131 34.9427 62.846 34.9427ZM30.342 43.3562V35.5295H37.6932C40.5052 35.5295 41.8734 36.4809 41.8734 38.7484C41.8734 41.0159 40.5052 41.9673 37.6932 41.9673C34.3068 41.9673 32.0012 41.9673 30.342 43.3562ZM9.3352 64.5343C10.2178 63.9371 10.5838 62.8919 10.5838 61.9231C10.5838 58.6382 7.78906 57.9681 4.70354 57.9681C2.79133 57.9681 1.54276 58.0444 0 58.2667V71.6979H5.2919C8.45268 71.6979 11.4664 71.0277 11.4664 67.5935C11.4664 66.3261 10.512 65.2046 9.3352 64.5343ZM3.10906 60.2377C3.71343 60.1807 4.23484 60.1313 4.70696 60.1313C6.24972 60.1313 8.01483 60.3571 8.01483 61.996C8.01483 63.635 5.51426 63.7114 4.11859 63.7114H2.64766V60.2806C2.80497 60.2664 2.95682 60.2521 3.10372 60.2383L3.10748 60.2379L3.10906 60.2377ZM4.85063 69.5346H2.64424V65.8782H4.11516C5.80501 65.8782 6.46864 65.7289 7.27594 65.5066C7.93614 65.8782 8.67161 66.4025 8.67161 67.597C8.67161 69.5381 6.31813 69.5381 4.85063 69.5381V69.5346ZM66.0376 58.2632H63.3455V71.698H72V69.4096H66.0376V58.2632ZM18.7389 57.9681C22.488 57.9681 25.1357 58.864 25.1357 62.3711L25.1323 62.3642C25.1323 64.083 24.325 65.3503 22.7069 66.0969L25.7959 71.6944H22.9293L20.138 66.7705C20.072 66.7705 19.814 66.7859 19.5295 66.8029L19.5276 66.803C19.1782 66.8238 18.7894 66.847 18.667 66.847H16.7548V71.6979H14.0354V58.2667C15.5781 58.041 16.8267 57.9681 18.7389 57.9681ZM16.7548 64.6836H18.3694C20.4287 64.6836 22.4128 64.4614 22.4128 62.3711C22.4128 60.5793 20.87 60.1313 18.7389 60.1313C18.2258 60.1313 17.4903 60.2042 16.7548 60.2806V64.6836ZM59.4903 58.2632H56.8734V71.698H59.4903V58.2632ZM47.0491 63.4614L49.8985 63.9058L49.902 63.9128C52.6796 64.3573 53.7777 65.4719 53.7777 67.7706C53.7777 70.5172 51.9509 72 47.8564 72C46.1767 72 44.0559 71.5555 42.667 70.8124V68.5138C44.2029 69.2568 46.0297 69.7013 47.8564 69.7013C49.3888 69.7013 51.2908 69.552 51.2908 67.9199C51.2908 66.9546 50.7777 66.4338 49.3888 66.2116L46.0262 65.6906C43.7617 65.3191 42.5918 64.0552 42.5918 61.9787C42.5918 59.1591 45.5165 57.9715 48.5132 57.9715C50.1209 57.9715 51.8004 58.2701 53.1174 58.9369V61.312C51.6568 60.6418 50.1209 60.1973 48.5132 60.1973C47.0491 60.1973 45.2223 60.496 45.2223 61.9787C45.2223 62.7947 45.8073 63.2391 47.0491 63.4614ZM32.4356 58.2632L26.9796 71.698H29.6716L30.6157 69.4096C31.6352 68.8193 32.87 68.6735 34.1084 68.6735C35.2714 68.6735 36.5097 68.8193 37.5257 69.4096L38.4698 71.698H41.162L35.7059 58.2632H32.4356ZM34.1084 66.4581C33.1643 66.4581 32.2885 66.6804 31.6352 66.9026L34.1084 60.9961L36.5097 66.9026C35.8564 66.6804 34.9806 66.4581 34.1084 66.4581ZM12.3968 39.2589L6.12653 52.0616C7.63851 51.3289 9.94756 50.8184 12.3968 50.8184C14.846 50.8184 17.2268 51.4053 18.7388 52.1345L12.3968 39.2589ZM37.0468 46.3564C34.7412 46.3564 30.3455 46.721 30.3455 49.7211V53.7457H38.7058C39.8586 53.7457 43.0296 53.3811 43.0296 50.0163C43.0296 46.6516 40.2896 46.3564 37.0468 46.3564ZM16.0434 17.5043C16.1802 17.3445 16.2486 17.1328 16.2486 16.8619C16.2486 16.6327 16.1767 16.4313 16.0297 16.2612C15.886 16.091 15.691 15.9452 15.4516 15.8271C14.9761 15.9383 14.4424 15.9938 13.8438 15.9938H13.0125V17.9557H14.2064C14.7059 17.9557 15.1027 17.921 15.3968 17.8481C15.691 17.7752 15.9065 17.6605 16.0434 17.5043ZM56.7879 18.0182C56.3364 18.0182 55.9464 17.914 55.6112 17.7022V17.7057C55.276 17.4939 55.0228 17.1952 54.845 16.8063C54.6671 16.4174 54.5781 15.9626 54.5781 15.4382C54.5781 14.9451 54.6739 14.5007 54.862 14.1048C55.0502 13.709 55.3136 13.3965 55.6523 13.1708C55.9909 12.9451 56.3774 12.8305 56.8119 12.8305C57.2702 12.8305 57.6636 12.9346 57.9955 13.1465C58.3238 13.3582 58.577 13.6569 58.7548 14.0458C58.9327 14.4347 59.0217 14.893 59.0217 15.4244C59.0217 15.9209 58.9259 16.3688 58.7378 16.7612C58.5496 17.1535 58.2862 17.4626 57.9476 17.6849C57.6089 17.9071 57.2395 18.0182 56.7879 18.0182ZM14.9624 14.6743C15.2634 14.6188 15.4926 14.5181 15.6431 14.3723C15.7971 14.2264 15.8723 14.025 15.8723 13.7715C15.8723 13.4 15.7184 13.1395 15.4071 12.9937C15.0958 12.8479 14.6716 12.775 14.1346 12.775C13.748 12.775 13.3752 12.7923 13.0125 12.8236V14.7646H13.7993C14.2748 14.7646 14.6613 14.7369 14.9658 14.6812L14.9624 14.6743ZM23.8324 15.9834L24.9544 12.9624L26.0421 15.9834H23.8324Z" fill="#232222"/>
</svg>
