<svg width="366" height="366" viewBox="0 0 366 366" fill="none" xmlns="http://www.w3.org/2000/svg">
<path fill-rule="evenodd" clip-rule="evenodd" d="M126.399 272.475L68.1469 157.655H57.157L0 272.475V40.0315C0 19.6615 16.6411 3 36.986 3H330.109C349.933 3 366 19.087 366 38.9346V171.2C348.038 156.523 332.648 154.695 319.467 154.695C280.638 154.695 248.399 182.586 248.399 226.599C248.399 245.315 254.259 259.992 264.519 272.457H238.505C241.444 267.705 243.635 260.723 243.635 253.759C243.635 235.043 233.741 225.885 228.246 221.846C234.489 214.499 237.045 208.631 237.045 196.897C237.045 170.869 218.369 157.655 194.546 157.655H130.068V272.475H126.399ZM278.325 62.6471C275.248 64.4056 272.831 66.8604 271.092 69.9768H271.075C269.335 73.1107 268.466 76.5754 268.466 80.3885C268.466 84.4448 269.301 87.9965 270.953 91.0605C272.622 94.125 274.969 96.4927 278.047 98.1641C281.108 99.8355 284.846 100.671 288.724 100.671C292.602 100.671 296.08 99.8008 299.158 98.0423C302.235 96.2838 304.635 93.8637 306.374 90.7645C308.113 87.6658 308.982 84.3924 308.982 80.3361C308.982 76.2794 308.147 72.7104 306.496 69.6289C304.826 66.5473 302.479 64.1796 299.401 62.5081C296.34 60.8367 292.776 60.001 288.724 60.001C284.881 60.001 281.421 60.8715 278.325 62.6471ZM230.837 62.6124C227.655 64.3709 225.151 66.8081 223.325 69.9249L223.29 69.9073C221.464 73.0236 220.56 76.5578 220.56 80.4927C220.56 84.6713 221.36 88.2578 222.96 91.2871C224.56 94.2992 226.837 96.6145 229.811 98.2336C232.784 99.8527 236.262 100.654 240.279 100.654C242.696 100.654 244.991 100.428 247.182 99.9921C249.373 99.5567 251.268 98.9475 252.868 98.1989V91.2176C251.234 91.931 249.582 92.4711 247.895 92.8019C246.208 93.1327 244.296 93.3064 242.122 93.3064C239.374 93.3064 237.062 92.7843 235.184 91.7221C233.306 90.6779 231.898 89.1802 230.958 87.2479C230.019 85.3328 229.55 82.9998 229.55 80.4232C229.55 77.8466 230.089 75.5484 231.15 73.5633C232.21 71.5787 233.741 70.0467 235.775 68.9497C237.81 67.8527 240.209 67.313 242.991 67.313C244.835 67.313 246.469 67.4701 247.93 67.7832C249.391 68.114 250.903 68.6014 252.503 69.2805V62.2469C250.955 61.4635 249.286 60.8891 247.53 60.5231C245.774 60.1576 243.791 59.9834 241.583 59.9834C237.601 59.9834 234.036 60.8539 230.837 62.6124ZM173.262 60.8367H164.933V99.8527H172.845V73.4938L192.546 99.8527H201.015V60.8367H193.033V87.5611L173.262 60.8367ZM132.277 60.8367H121.913L105.828 99.8527H114.853L118.47 90.0682H134.85L138.415 99.8527H147.805L132.277 60.8367ZM64.6171 60.5407C62.2869 60.6625 60.0434 60.8539 57.922 61.1327V61.1846V99.8874H73.6415C79.6931 99.8874 84.11 98.9651 86.892 97.1371C89.6741 95.3086 91.0653 92.4188 91.0653 88.4839C91.0653 86.6035 90.5434 84.8974 89.5001 83.3478C88.4568 81.7986 86.9964 80.5451 85.1185 79.5875C86.3877 78.5952 87.3439 77.4287 87.9701 76.1228C88.6136 74.7997 88.9263 73.3372 88.9263 71.7006C88.9263 67.8356 87.5178 64.9801 84.701 63.1349C81.8841 61.2893 77.4673 60.3665 71.5028 60.3665C69.2422 60.3665 66.9468 60.4189 64.6171 60.5407ZM319.467 178.199C328.631 178.199 337.065 178.564 353.914 190.664V190.682L366 175.639V267.756L353.914 257.067C342.907 268.801 331.918 272.475 319.467 272.475C292.341 272.475 273.665 253.393 273.665 226.616C273.665 198.011 292.358 178.199 319.467 178.199ZM154.239 220.383V181.141H191.607C205.901 181.141 212.857 185.911 212.857 197.28C212.857 208.649 205.901 213.419 191.607 213.419C174.393 213.419 162.673 213.419 154.239 220.383ZM47.4539 326.568C51.9404 323.573 53.8011 318.333 53.8011 313.476C53.8011 297.006 39.5944 293.646 23.9097 293.646C14.1893 293.646 7.84234 294.028 0 295.143V362.485H26.9005C42.9678 362.485 58.2875 359.125 58.2875 341.906C58.2875 335.552 53.436 329.928 47.4539 326.568ZM15.8044 305.025C18.8766 304.739 21.5271 304.492 23.927 304.492C31.7694 304.492 40.742 305.624 40.742 313.841C40.742 322.059 28.0308 322.442 20.9361 322.442H13.459V305.24C14.2586 305.169 15.0305 305.097 15.7773 305.028L15.7964 305.026L15.8044 305.025ZM24.6574 351.639H13.4416V333.306H20.9188C29.5088 333.306 32.8823 332.557 36.986 331.443C40.3421 333.306 44.0807 335.935 44.0807 341.924C44.0807 351.656 32.1172 351.656 24.6574 351.656V351.639ZM335.691 295.125H322.006V362.486H366V351.012H335.691V295.125ZM95.2562 293.646C114.314 293.646 127.773 298.137 127.773 315.722L127.756 315.687C127.756 324.305 123.652 330.659 115.427 334.402L131.129 362.468H116.557L102.368 337.78C102.033 337.78 100.721 337.857 99.275 337.942L99.2651 337.943C97.4893 338.047 95.5129 338.163 94.8907 338.163H85.1705V362.485H71.3465V295.143C79.1888 294.011 85.5356 293.646 95.2562 293.646ZM85.1705 327.316H93.3779C103.846 327.316 113.932 326.202 113.932 315.722C113.932 306.738 106.089 304.492 95.2562 304.492C92.6477 304.492 88.9091 304.857 85.1705 305.24V327.316ZM302.409 295.125H289.107V362.486H302.409V295.125ZM239.166 321.189L253.651 323.417L253.668 323.452C267.788 325.68 273.37 331.269 273.37 342.794C273.37 356.566 264.084 364 243.27 364C234.732 364 223.951 361.771 216.891 358.046V346.52C224.698 350.246 233.984 352.475 243.27 352.475C251.06 352.475 260.728 351.726 260.728 343.543C260.728 338.703 258.12 336.092 251.06 334.977L233.967 332.366C222.455 330.503 216.508 324.165 216.508 313.754C216.508 299.617 231.376 293.663 246.609 293.663C254.781 293.663 263.319 295.16 270.014 298.503V310.411C262.589 307.051 254.781 304.823 246.609 304.823C239.166 304.823 229.88 306.32 229.88 313.754C229.88 317.846 232.854 320.074 239.166 321.189ZM164.881 295.125L137.146 362.486H150.831L155.63 351.012C160.812 348.052 167.089 347.321 173.384 347.321C179.296 347.321 185.591 348.052 190.756 351.012L195.555 362.486H209.24L181.505 295.125H164.881ZM173.384 336.213C168.585 336.213 164.133 337.328 160.812 338.442L173.384 308.827L185.591 338.442C182.27 337.328 177.818 336.213 173.384 336.213ZM63.0171 199.84L31.1432 264.031C38.8291 260.357 50.5667 257.798 63.0171 257.798C75.4674 257.798 87.5698 260.74 95.2558 264.396L63.0171 199.84ZM188.321 235.426C176.601 235.426 154.256 237.254 154.256 252.296V272.475H196.754C202.614 272.475 218.734 270.647 218.734 253.776C218.734 236.906 204.805 235.426 188.321 235.426ZM81.5538 90.7645C82.2492 89.9635 82.5972 88.9018 82.5972 87.5439C82.5972 86.3946 82.2316 85.3847 81.4842 84.5319C80.7536 83.6785 79.7627 82.9475 78.5454 82.3555C76.1284 82.9128 73.4155 83.1912 70.3728 83.1912H66.147V93.028H72.2159C74.7548 93.028 76.7719 92.8538 78.2671 92.4883C79.7627 92.1228 80.858 91.5479 81.5538 90.7645ZM288.672 93.3411C286.376 93.3411 284.394 92.8191 282.69 91.7568V91.7744C280.986 90.7126 279.699 89.2149 278.795 87.2651C277.891 85.3152 277.439 83.0346 277.439 80.4056C277.439 77.9332 277.925 75.7049 278.882 73.7199C279.839 71.7353 281.177 70.1686 282.899 69.0368C284.621 67.9051 286.585 67.3307 288.794 67.3307C291.124 67.3307 293.124 67.8527 294.81 68.915C296.479 69.9768 297.766 71.474 298.67 73.4239C299.575 75.3742 300.027 77.672 300.027 80.3361C300.027 82.8257 299.54 85.0715 298.584 87.039C297.627 89.006 296.288 90.5556 294.567 91.6702C292.845 92.7843 290.967 93.3411 288.672 93.3411ZM76.0589 76.5754C77.5888 76.297 78.7542 75.792 79.5191 75.061C80.3018 74.3295 80.684 73.3196 80.684 72.0489C80.684 70.1862 79.9019 68.8802 78.3195 68.1488C76.7371 67.4177 74.5809 67.0522 71.8508 67.0522C69.8857 67.0522 67.9906 67.1393 66.147 67.2959V77.028H70.1464C72.5638 77.028 74.5284 76.889 76.076 76.6102L76.0589 76.5754ZM121.148 83.1388L126.852 67.9922L132.381 83.1388H121.148Z" fill="#A6874B"/>
</svg>
