<svg width="595" height="842" viewBox="0 0 595 842" fill="none" xmlns="http://www.w3.org/2000/svg">
<rect width="595" height="842" fill="white"/>
<g opacity="0.3" clip-path="url(#clip0_4002_27)">
<mask id="mask0_4002_27" style="mask-type:alpha" maskUnits="userSpaceOnUse" x="231" y="434" width="364" height="408">
<path d="M231 434H595V782C595 815.137 568.137 842 535 842H231V434Z" fill="#1E1E1E"/>
</mask>
<g mask="url(#mask0_4002_27)">
<path opacity="0.5" d="M745.234 629.964L739.572 635.629L737.076 634.771C731.289 634.565 725.44 636.669 721.024 641.087C716.612 645.501 714.504 651.357 714.715 657.142L715.572 659.643L709.905 665.313L707.601 658.766H707.596L691.85 614.083L694.03 611.902L738.691 627.659L745.234 629.964ZM745.234 629.964L750.901 624.295L753.402 625.153C759.184 625.364 765.038 623.255 769.45 618.841C773.861 614.423 775.964 608.572 775.758 602.782L774.901 600.281L780.563 594.616L782.872 601.163L798.623 645.841L796.443 648.022H796.439L751.773 632.27L745.234 629.964ZM453.769 1043.7L459.436 1038.03L461.936 1038.89C467.718 1039.1 473.572 1036.99 477.984 1032.58C482.401 1028.16 484.504 1022.31 484.298 1016.52L483.44 1014.02L489.103 1008.36L491.412 1014.9L507.162 1059.58L504.983 1061.76H504.978L460.312 1046.01L453.769 1043.7ZM453.769 1043.7L448.107 1049.36L445.606 1048.51C439.824 1048.3 433.975 1050.4 429.558 1054.82C425.146 1059.24 423.039 1065.09 423.249 1070.88L424.107 1073.38L418.44 1079.05L416.131 1072.51V1072.5L400.385 1027.81L402.565 1025.63L447.225 1041.39L453.769 1043.7ZM931.307 810.506L925.644 816.17L923.149 815.312C917.362 815.106 911.508 817.215 907.096 821.629C902.684 826.042 900.576 831.899 900.787 837.683L901.645 840.185L895.978 845.854L893.674 839.312L893.669 839.303L877.923 794.619L880.102 792.439L924.763 808.196L931.307 810.506ZM931.307 810.506L936.974 804.836L939.474 805.694C945.256 805.905 951.11 803.801 955.522 799.383C959.934 794.964 962.037 789.113 961.831 783.324L960.973 780.822L966.636 775.158L968.945 781.704L984.695 826.383L982.516 828.563V828.568L937.85 812.816L931.307 810.506ZM318.91 881.221L321.09 879.041L305.339 834.362L303.03 827.816L297.368 833.48L298.225 835.982C298.431 841.771 296.328 847.622 291.912 852.036C287.5 856.45 281.646 858.558 275.864 858.347L273.363 857.49L267.696 863.159L274.24 865.469L318.906 881.221H318.91ZM309.928 870.06L288.903 862.828C291.84 861.453 294.58 859.55 297.004 857.13C299.428 854.705 301.329 851.959 302.704 849.022L309.928 870.06ZM300.755 821.269L303.064 827.816L308.731 822.146L307.873 819.645C307.662 813.86 309.77 808.004 314.182 803.59C318.599 799.172 324.448 797.068 330.23 797.274L332.73 798.132L338.393 792.467L331.849 790.157L287.188 774.4L285.009 776.581L300.755 821.264V821.269ZM317.19 792.798C314.254 794.173 311.509 796.076 309.085 798.501C306.661 800.926 304.764 803.672 303.389 806.605L296.161 785.571L317.19 792.798ZM389.592 810.487L391.772 808.306L376.021 763.627L373.712 757.081L368.05 762.745L368.907 765.247C369.113 771.036 367.01 776.888 362.594 781.306C358.182 785.72 352.328 787.828 346.546 787.618L344.05 786.76L338.383 792.429L344.927 794.739L389.592 810.491V810.487ZM380.615 799.325L359.59 792.094C362.527 790.718 365.267 788.816 367.691 786.396C370.115 783.971 372.016 781.225 373.391 778.287L380.615 799.325ZM371.437 750.535L373.741 757.081L379.408 751.412L378.55 748.91C378.34 743.126 380.447 737.269 384.859 732.856C389.276 728.437 395.125 726.333 400.912 726.539L403.408 727.397L409.07 721.733L402.526 719.423L357.866 703.666L355.686 705.846L371.432 750.53L371.437 750.535ZM387.877 722.063C384.941 723.439 382.196 725.341 379.772 727.766C377.348 730.191 375.451 732.932 374.076 735.87L366.847 714.837L387.877 722.063ZM460.279 739.843L462.459 737.662L446.708 692.984L444.404 686.437L438.741 692.102L439.599 694.603C439.805 700.392 437.702 706.244 433.29 710.658C428.878 715.071 423.024 717.18 417.242 716.969L414.742 716.111L409.075 721.781L415.618 724.086L460.284 739.838L460.279 739.843ZM451.302 728.686L430.277 721.455C433.213 720.079 435.953 718.177 438.377 715.752C440.801 713.327 442.703 710.581 444.078 707.643L451.302 728.682V728.686ZM442.123 679.896L444.432 686.442L450.099 680.773L449.242 678.271C449.031 672.487 451.139 666.631 455.551 662.217C459.968 657.798 465.817 655.694 471.599 655.901L474.099 656.758L479.761 651.094L473.218 648.784L428.557 633.027L426.377 635.207L442.123 679.891V679.896ZM458.559 651.424C455.623 652.8 452.878 654.702 450.454 657.127C448.03 659.552 446.133 662.293 444.758 665.231L437.529 644.198L458.559 651.424ZM531.009 669.151L533.188 666.971L517.438 622.292L515.133 615.746L509.471 621.41L510.329 623.912C510.535 629.701 508.432 635.552 504.015 639.966C499.603 644.38 493.749 646.488 487.967 646.278L485.467 645.42L479.8 651.089L486.343 653.399L531.009 669.151ZM522.032 657.99L501.007 650.758C503.943 649.383 506.683 647.48 509.107 645.056C511.531 642.631 513.433 639.885 514.808 636.947L522.032 657.985V657.99ZM512.853 609.204L515.162 615.75L520.829 610.081L519.972 607.58C519.761 601.795 521.869 595.939 526.281 591.525C530.697 587.107 536.546 585.003 542.333 585.214L544.834 586.072L550.496 580.407L543.952 578.097L499.292 562.34L497.112 564.521L512.858 609.204H512.853ZM529.289 580.728C526.353 582.104 523.608 584.006 521.184 586.431C518.76 588.856 516.863 591.602 515.483 594.535L508.254 573.501L529.284 580.728H529.289ZM601.695 598.508L603.875 596.327L588.124 551.648L585.815 545.102L580.153 550.767L581.011 553.268C581.217 559.057 579.114 564.909 574.697 569.322C570.285 573.736 564.431 575.845 558.649 575.634L556.149 574.776L550.482 580.445L557.025 582.751L601.691 598.503L601.695 598.508ZM592.714 587.351L571.689 580.12C574.625 578.744 577.365 576.842 579.789 574.417C582.213 571.992 584.115 569.246 585.49 566.308L592.714 587.346V587.351ZM583.54 538.56L585.849 545.107L591.516 539.437L590.658 536.941C590.448 531.156 592.555 525.3 596.967 520.886C601.379 516.473 607.233 514.364 613.015 514.57L615.516 515.428L621.178 509.763L614.634 507.458L569.974 491.701L567.794 493.882L583.54 538.565V538.56ZM599.976 510.089C597.039 511.465 594.294 513.367 591.87 515.792C589.446 518.217 587.55 520.958 586.175 523.896L578.946 502.863L599.976 510.089ZM672.377 527.811L674.557 525.631L658.806 480.952L656.502 474.406L650.84 480.07L651.697 482.572C651.903 488.361 649.8 494.212 645.384 498.626C640.972 503.04 635.118 505.148 629.336 504.938L626.84 504.08L621.173 509.749L627.717 512.054L672.382 527.807L672.377 527.811ZM663.4 516.655L642.375 509.423C645.312 508.048 648.052 506.145 650.476 503.72C652.9 501.295 654.802 498.549 656.176 495.612L663.4 516.65V516.655ZM654.222 467.864L656.526 474.41L662.193 468.741L661.336 466.244C661.125 460.46 663.233 454.604 667.645 450.19C672.061 445.772 677.91 443.668 683.697 443.874L686.198 444.732L691.86 439.067L685.316 436.762L640.656 421L638.476 423.181L654.222 467.864ZM670.662 439.393C667.726 440.768 664.981 442.671 662.557 445.096C660.133 447.521 658.236 450.262 656.857 453.2L649.628 432.166L670.658 439.393H670.662ZM248.214 951.913L250.394 949.732L234.643 905.053L232.334 898.507L226.672 904.172L227.529 906.673C227.735 912.462 225.632 918.314 221.215 922.732C216.803 927.146 210.95 929.255 205.168 929.044L202.667 928.186L197 933.855L203.544 936.16L248.209 951.913H248.214ZM239.237 940.751L218.212 933.52C221.148 932.144 223.888 930.242 226.312 927.817C228.736 925.392 230.638 922.646 232.013 919.708L239.237 940.747V940.751ZM230.058 891.966L232.363 898.512L238.03 892.843L237.172 890.341C236.961 884.557 239.069 878.7 243.481 874.287C247.898 869.868 253.747 867.764 259.529 867.97L262.029 868.828L267.692 863.164L261.148 860.854L216.487 845.097L214.308 847.277L230.054 891.961L230.058 891.966ZM246.494 863.494C243.558 864.87 240.813 866.772 238.389 869.197C235.965 871.622 234.068 874.363 232.693 877.301L225.464 856.268L246.494 863.494ZM380.969 941.346L383.149 939.165L367.398 894.486L365.089 887.94L359.427 893.605L360.285 896.106C360.491 901.895 358.388 907.747 353.976 912.16C349.564 916.574 343.71 918.683 337.928 918.472L335.432 917.614L329.765 923.283L336.309 925.589L380.974 941.341L380.969 941.346ZM371.992 930.189L350.967 922.958C353.904 921.582 356.644 919.68 359.068 917.255C361.492 914.83 363.394 912.084 364.768 909.146L371.992 930.184V930.189ZM362.814 881.399L365.123 887.945L370.79 882.276L369.932 879.779C369.722 873.994 371.829 868.138 376.241 863.724C380.658 859.306 386.507 857.202 392.294 857.408L394.795 858.266L400.457 852.601L393.913 850.296L349.252 834.539L347.073 836.72L362.819 881.403L362.814 881.399ZM379.25 852.927C376.313 854.303 373.568 856.205 371.144 858.63C368.721 861.055 366.824 863.796 365.449 866.734L358.22 845.701L379.25 852.927ZM451.656 870.611L453.836 868.431L438.085 823.752L435.776 817.205L430.114 822.87L430.971 825.372C431.177 831.161 429.074 837.012 424.658 841.426C420.246 845.84 414.392 847.948 408.61 847.737L406.109 846.879L400.442 852.549L406.986 854.859L451.651 870.611H451.656ZM442.679 859.455L421.654 852.223C424.591 850.847 427.331 848.945 429.755 846.52C432.179 844.095 434.08 841.349 435.455 838.411L442.679 859.45V859.455ZM433.501 810.664L435.81 817.21L441.477 811.541L440.619 809.039C440.408 803.255 442.516 797.399 446.928 792.985C451.345 788.566 457.194 786.463 462.976 786.669L465.476 787.527L471.139 781.862L464.595 779.552L419.934 763.795L417.755 765.975L433.501 810.659V810.664ZM449.936 782.193C447 783.568 444.255 785.471 441.831 787.896C439.407 790.32 437.51 793.062 436.135 795.999L428.907 774.966L449.936 782.193ZM522.343 799.972L524.523 797.792L508.772 753.113L506.463 746.567L500.801 752.231L501.658 754.733C501.864 760.522 499.761 766.373 495.349 770.787C490.937 775.201 485.083 777.309 479.301 777.098L476.806 776.241L471.139 781.91L477.682 784.22L522.348 799.972H522.343ZM513.361 788.811L492.336 781.579C495.273 780.204 498.013 778.301 500.437 775.876C502.861 773.451 504.762 770.705 506.137 767.768L513.361 788.806V788.811ZM504.187 740.025L506.492 746.571L512.159 740.902L511.301 738.4C511.09 732.616 513.198 726.76 517.61 722.346C522.027 717.928 527.876 715.824 533.663 716.03L536.163 716.888L541.825 711.223L535.282 708.913L490.621 693.156L488.441 695.337L504.187 740.02V740.025ZM520.623 711.549C517.687 712.924 514.942 714.827 512.518 717.252C510.094 719.677 508.197 722.423 506.822 725.356L499.593 704.322L520.623 711.549ZM593.073 729.281L595.252 727.1L579.502 682.421L577.193 675.875L571.531 681.539L572.388 684.041C572.594 689.83 570.491 695.682 566.074 700.095C561.662 704.509 555.809 706.618 550.027 706.407L547.526 705.549L541.859 711.218L548.403 713.523L593.068 729.276L593.073 729.281ZM584.091 718.119L563.066 710.888C566.002 709.512 568.743 707.61 571.166 705.19C573.59 702.769 575.492 700.019 576.867 697.081L584.091 718.119ZM574.917 669.329L577.226 675.875L582.893 670.206L582.036 667.709C581.825 661.924 583.933 656.068 588.345 651.655C592.761 647.236 598.61 645.132 604.392 645.338L606.893 646.196L612.555 640.532L606.012 638.226L561.351 622.469L559.171 624.65L574.917 669.333V669.329ZM591.353 640.857C588.417 642.233 585.672 644.135 583.248 646.56C580.824 648.985 578.927 651.726 577.547 654.664L570.319 633.631L591.348 640.857H591.353ZM663.76 658.637L665.939 656.456L650.188 611.778L647.884 605.231L642.222 610.896L643.08 613.397C643.286 619.187 641.183 625.038 636.771 629.456C632.359 633.87 626.505 635.979 620.723 635.768L618.227 634.91L612.56 640.579L619.099 642.889L663.764 658.642L663.76 658.637ZM654.778 647.48L633.753 640.249C636.689 638.873 639.429 636.971 641.853 634.551C644.277 632.126 646.179 629.38 647.554 626.442L654.778 647.48ZM645.599 598.69L647.908 605.231L653.575 599.562L652.718 597.06C652.507 591.276 654.615 585.42 659.027 581.006C663.443 576.588 669.292 574.484 675.079 574.69L677.575 575.548L683.237 569.883L676.694 567.573L632.033 551.816L629.853 553.997L645.599 598.68V598.69ZM662.04 570.219C659.103 571.594 656.358 573.497 653.934 575.921C651.511 578.346 649.614 581.088 648.239 584.025L641.01 562.992L662.04 570.219ZM734.441 587.941L736.621 585.76L720.87 541.081L718.561 534.535L712.899 540.199L713.757 542.701C713.963 548.49 711.86 554.342 707.443 558.76C703.026 563.179 697.177 565.282 691.395 565.072L688.895 564.214L683.228 569.883L689.771 572.193L734.437 587.945L734.441 587.941ZM725.464 576.779L704.439 569.548C707.376 568.172 710.116 566.27 712.54 563.85C714.964 561.425 716.866 558.679 718.24 555.741L725.464 576.779ZM716.286 527.993L718.595 534.54L724.262 528.87L723.404 526.369C723.194 520.584 725.301 514.728 729.713 510.314C734.13 505.896 739.979 503.792 745.761 503.998L748.262 504.856L753.924 499.192L747.38 496.882L702.72 481.125L700.54 483.305L716.286 527.989V527.993ZM732.722 499.517C729.785 500.893 727.04 502.795 724.616 505.22C722.193 507.645 720.296 510.386 718.916 513.324L711.687 492.291L732.717 499.517H732.722ZM310.278 1012.04L312.458 1009.86L296.707 965.183L294.398 958.641L288.736 964.306L289.593 966.807C289.799 972.596 287.696 978.448 283.279 982.862C278.867 987.275 273.014 989.384 267.232 989.173L264.736 988.315L259.069 993.985L265.613 996.294L310.278 1012.05V1012.04ZM301.296 1000.88L280.271 993.649C283.208 992.274 285.948 990.371 288.372 987.951C290.796 985.526 292.697 982.78 294.072 979.842L301.296 1000.88ZM292.122 952.09L294.427 958.636L300.094 952.967L299.236 950.465C299.025 944.681 301.133 938.825 305.545 934.411C309.962 929.993 315.811 927.889 321.598 928.095L324.093 928.953L329.756 923.288L323.212 920.983L278.551 905.226L276.372 907.406L292.118 952.09H292.122ZM308.558 923.619C305.622 924.994 302.877 926.897 300.453 929.322C298.029 931.747 296.132 934.488 294.757 937.426L287.529 916.392L308.558 923.619ZM442.971 1001.43L445.151 999.247L429.4 954.568L427.096 948.021L421.434 953.686L422.291 956.183C422.497 961.972 420.394 967.823 415.978 972.242C411.566 976.656 405.712 978.764 399.93 978.553L397.434 977.695L391.767 983.365L398.311 985.675L442.976 1001.43H442.971ZM433.994 990.266L412.969 983.034C415.906 981.659 418.646 979.756 421.07 977.331C423.494 974.906 425.395 972.16 426.77 969.223L433.994 990.261V990.266ZM424.816 941.48L427.12 948.026L432.787 942.357L431.929 939.855C431.719 934.071 433.826 928.215 438.238 923.801C442.655 919.387 448.504 917.279 454.291 917.49L456.792 918.347L462.454 912.683L455.91 910.373L411.249 894.616L409.07 896.796L424.816 941.48ZM441.252 913.004C438.315 914.379 435.57 916.282 433.146 918.707C430.722 921.132 428.825 923.873 427.446 926.811L420.217 905.777L441.247 913.004H441.252ZM513.658 930.692L515.838 928.512L500.087 883.833L497.778 877.287L492.116 882.951L492.973 885.448C493.179 891.237 491.076 897.089 486.659 901.507C482.248 905.921 476.394 908.029 470.612 907.819L468.111 906.961L462.444 912.63L468.988 914.94L513.653 930.692H513.658ZM504.681 919.531L483.656 912.299C486.592 910.924 489.333 909.022 491.756 906.597C494.18 904.172 496.082 901.426 497.457 898.488L504.681 919.526V919.531ZM495.503 870.745L497.807 877.292L503.474 871.622L502.616 869.121C502.405 863.336 504.513 857.48 508.925 853.066C513.342 848.648 519.191 846.544 524.978 846.755L527.478 847.613L533.14 841.948L526.597 839.638L481.936 823.881L479.757 826.062L495.503 870.745ZM511.938 842.269C509.002 843.645 506.257 845.547 503.833 847.972C501.409 850.397 499.512 853.138 498.137 856.076L490.909 835.042L511.938 842.269ZM584.345 860.049L586.524 857.868L570.774 813.189L568.469 806.643L562.807 812.308L563.665 814.809C563.871 820.598 561.768 826.45 557.351 830.868C552.939 835.282 547.085 837.391 541.303 837.18L538.803 836.322L533.136 841.991L539.679 844.296L584.345 860.049ZM575.363 848.892L554.338 841.661C557.274 840.285 560.015 838.383 562.438 835.958C564.862 833.533 566.764 830.787 568.139 827.849L575.363 848.887V848.892ZM566.184 800.102L568.489 806.648L574.156 800.979L573.298 798.477C573.087 792.693 575.195 786.836 579.607 782.423C584.024 778.004 589.873 775.9 595.655 776.106L598.155 776.964L603.818 771.3L597.274 768.99L552.613 753.233L550.434 755.413L566.18 800.097L566.184 800.102ZM582.625 771.63C579.689 773.006 576.944 774.908 574.52 777.333C572.096 779.758 570.199 782.499 568.819 785.437L561.591 764.404L582.62 771.63H582.625ZM655.075 789.357L657.254 787.177L641.503 742.498L639.199 735.952L633.537 741.616L634.395 744.113C634.601 749.902 632.498 755.753 628.081 760.172C623.669 764.586 617.815 766.694 612.033 766.483L609.533 765.626L603.866 771.295L610.409 773.605L655.075 789.357ZM646.093 778.201L625.068 770.969C628.004 769.594 630.744 767.691 633.168 765.271C635.592 762.846 637.494 760.1 638.869 757.162L646.093 778.201ZM636.914 729.41L639.223 735.952L644.89 730.282L644.033 727.781C643.822 721.996 645.93 716.14 650.342 711.726C654.758 707.308 660.607 705.204 666.389 705.415L668.89 706.273L674.552 700.608L668.009 698.298L623.348 682.541L621.168 684.722L636.914 729.405V729.41ZM653.355 700.939C650.418 702.314 647.673 704.217 645.25 706.642C642.826 709.067 640.929 711.808 639.554 714.745L632.325 693.712L653.355 700.939ZM725.757 718.718L727.936 716.538L712.185 671.859L709.881 665.313L704.219 670.977L705.077 673.479C705.283 679.268 703.18 685.119 698.763 689.538C694.351 693.952 688.497 696.06 682.715 695.849L680.219 694.992L674.552 700.661L681.096 702.966L725.761 718.718H725.757ZM716.779 707.557L695.754 700.325C698.691 698.95 701.431 697.047 703.855 694.623C706.279 692.198 708.181 689.452 709.556 686.514L716.779 707.552V707.557ZM724.037 630.295C721.1 631.671 718.355 633.573 715.931 635.998C713.508 638.423 711.611 641.164 710.236 644.102L703.007 623.068L724.037 630.295ZM787.466 636.861L766.441 629.629C769.378 628.254 772.118 626.351 774.542 623.926C776.966 621.501 778.867 618.755 780.242 615.818L787.466 636.856V636.861ZM778.288 588.07L780.597 594.616L786.264 588.947L785.406 586.445C785.196 580.661 787.303 574.805 791.715 570.391C796.132 565.973 801.981 563.869 807.763 564.075L810.264 564.933L815.926 559.268L809.382 556.963L764.721 541.206L762.542 543.386L778.288 588.07ZM794.724 559.599C791.787 560.974 789.042 562.877 786.618 565.302C784.194 567.727 782.297 570.468 780.918 573.405L773.689 552.372L794.719 559.599H794.724ZM372.275 1072.12L374.455 1069.94L358.704 1025.26L356.4 1018.72L350.737 1024.38L351.595 1026.88C351.801 1032.67 349.698 1038.52 345.281 1042.94C340.869 1047.35 335.015 1049.46 329.233 1049.25L326.733 1048.39L321.066 1054.06L327.609 1056.37L372.275 1072.12V1072.12ZM363.298 1060.96L342.273 1053.73C345.209 1052.35 347.949 1050.45 350.373 1048.03C352.797 1045.61 354.699 1042.86 356.074 1039.92L363.298 1060.96ZM354.119 1012.17L356.424 1018.71L362.091 1013.04L361.233 1010.54C361.022 1004.76 363.13 998.901 367.542 994.488C371.959 990.069 377.808 987.965 383.595 988.172L386.095 989.029L391.757 983.365L385.214 981.055L340.553 965.298L338.374 967.478L354.119 1012.16V1012.17ZM370.56 983.7C367.624 985.076 364.879 986.978 362.455 989.403C360.031 991.828 358.134 994.569 356.754 997.507L349.525 976.473L370.555 983.7H370.56ZM496.001 1050.6L474.976 1043.37C477.912 1041.99 480.652 1040.09 483.076 1037.67C485.5 1035.25 487.402 1032.5 488.777 1029.56L496.001 1050.6ZM486.822 1001.82L489.127 1008.36L494.794 1002.69L493.936 1000.19C493.725 994.406 495.833 988.55 500.245 984.136C504.662 979.718 510.511 977.614 516.293 977.82L518.793 978.678L524.456 973.013L517.912 970.703L473.251 954.946L471.072 957.127L486.818 1001.81L486.822 1001.82ZM503.263 973.339C500.326 974.715 497.582 976.617 495.158 979.042C492.734 981.467 490.837 984.208 489.462 987.146L482.233 966.112L503.263 973.339ZM575.665 991.028L577.844 988.847L562.093 944.168L559.789 937.627L554.127 943.291L554.985 945.793C555.191 951.582 553.088 957.434 548.671 961.847C544.259 966.261 538.405 968.37 532.623 968.159L530.127 967.301L524.46 972.97L531.004 975.28L575.669 991.033L575.665 991.028ZM566.687 979.866L545.663 972.635C548.599 971.259 551.339 969.357 553.763 966.937C556.187 964.512 558.089 961.766 559.464 958.828L566.687 979.866ZM557.509 931.081L559.813 937.627L565.48 931.958L564.623 929.456C564.412 923.672 566.52 917.815 570.932 913.402C575.348 908.983 581.197 906.879 586.979 907.085L589.48 907.943L595.142 902.279L588.599 899.969L543.938 884.212L541.758 886.392L557.504 931.076L557.509 931.081ZM573.945 902.605C571.008 903.98 568.264 905.883 565.84 908.307C563.416 910.732 561.519 913.474 560.139 916.411L552.91 895.378L573.94 902.605H573.945ZM646.351 920.384L648.531 918.204L632.78 873.525L630.471 866.978L624.809 872.643L625.666 875.145C625.872 880.934 623.77 886.785 619.353 891.204C614.941 895.617 609.087 897.726 603.305 897.515L600.804 896.657L595.137 902.327L601.681 904.637L646.347 920.389L646.351 920.384ZM637.374 909.228L616.349 901.996C619.286 900.621 622.026 898.718 624.45 896.293C626.874 893.868 628.775 891.122 630.15 888.184L637.374 909.223V909.228ZM628.196 860.437L630.5 866.978L636.167 861.309L635.31 858.808C635.099 853.023 637.207 847.167 641.618 842.753C646.035 838.335 651.884 836.231 657.671 836.437L660.172 837.295L665.834 831.63L659.29 829.32L614.629 813.563L612.45 815.744L628.196 860.427V860.437ZM644.632 831.966C641.695 833.341 638.95 835.244 636.526 837.669C634.102 840.094 632.205 842.835 630.826 845.772L623.597 824.739L644.627 831.966H644.632ZM717.081 849.693L719.261 847.512L703.51 802.833L701.206 796.287L695.544 801.951L696.401 804.453C696.607 810.242 694.504 816.094 690.087 820.512C685.676 824.926 679.822 827.034 674.04 826.824L671.539 825.966L665.872 831.635L672.416 833.945L717.081 849.697V849.693ZM708.104 838.536L687.079 831.304C690.016 829.929 692.756 828.026 695.18 825.602C697.604 823.177 699.505 820.431 700.88 817.493L708.104 838.531V838.536ZM698.926 789.745L701.23 796.292L706.897 790.622L706.039 788.121C705.829 782.336 707.936 776.48 712.348 772.066C716.765 767.648 722.614 765.544 728.401 765.75L730.897 766.608L736.559 760.943L730.015 758.634L685.355 742.876L683.175 745.057L698.921 789.741L698.926 789.745ZM715.361 761.274C712.425 762.65 709.68 764.552 707.256 766.977C704.832 769.402 702.935 772.143 701.556 775.081L694.327 754.047L715.357 761.274H715.361ZM787.768 779.054L789.948 776.873L774.197 732.194L771.893 725.648L766.23 731.313L767.088 733.809C767.294 739.598 765.191 745.45 760.774 749.864C756.362 754.277 750.508 756.386 744.726 756.175L742.226 755.317L736.559 760.987L743.103 763.297L787.768 779.049V779.054ZM778.786 767.892L757.761 760.661C760.698 759.285 763.438 757.383 765.862 754.963C768.285 752.538 770.187 749.792 771.562 746.854L778.786 767.892ZM769.612 719.106L771.917 725.653L777.584 719.983L776.726 717.482C776.515 711.698 778.623 705.841 783.035 701.428C787.452 697.009 793.301 694.905 799.083 695.111L801.583 695.969L807.246 690.305L800.707 688L756.046 672.242L753.866 674.423L769.612 719.106ZM786.048 690.631C783.112 692.006 780.367 693.908 777.943 696.333C775.519 698.758 773.622 701.504 772.247 704.437L765.018 683.404L786.048 690.631ZM858.45 708.357L860.63 706.177L844.879 661.498L842.57 654.952L836.908 660.616L837.765 663.118C837.971 668.907 835.868 674.758 831.451 679.172C827.039 683.586 821.186 685.694 815.404 685.484L812.903 684.626L807.236 690.295L813.78 692.605L858.445 708.357H858.45ZM849.473 697.196L828.448 689.964C831.384 688.589 834.124 686.686 836.548 684.262C838.972 681.837 840.874 679.091 842.249 676.153L849.473 697.191V697.196ZM840.294 648.405L842.603 654.952L848.27 649.282L847.413 646.781C847.202 640.996 849.31 635.14 853.722 630.726C858.139 626.308 863.988 624.204 869.77 624.41L872.27 625.268L877.932 619.603L871.389 617.294L826.728 601.536L824.548 603.717L840.294 648.401V648.405ZM856.73 619.934C853.794 621.31 851.049 623.212 848.625 625.637C846.201 628.062 844.304 630.808 842.929 633.741L835.7 612.707L856.73 619.934ZM434.286 1132.45L436.466 1130.27L420.715 1085.59L418.406 1079.05L412.744 1084.71L413.602 1087.21C413.807 1093 411.705 1098.85 407.288 1103.27C402.876 1107.68 397.022 1109.79 391.24 1109.58L388.739 1108.72L383.072 1114.39L389.616 1116.7L434.282 1132.45H434.286ZM425.309 1121.3L404.284 1114.07C407.221 1112.69 409.961 1110.79 412.385 1108.36C414.809 1105.94 416.71 1103.19 418.085 1100.25L425.309 1121.29V1121.3ZM432.567 1044.04C429.63 1045.41 426.885 1047.31 424.461 1049.74C422.037 1052.16 420.14 1054.9 418.766 1057.84L411.537 1036.81L432.567 1044.04ZM567.042 1121.89L569.222 1119.71L553.471 1075.03L551.162 1068.49L545.5 1074.16L546.357 1076.66C546.563 1082.45 544.46 1088.3 540.043 1092.72C535.632 1097.13 529.778 1099.24 523.996 1099.03L521.5 1098.17L515.833 1103.84L522.377 1106.14L567.042 1121.9V1121.89ZM558.065 1110.73L537.04 1103.5C539.976 1102.12 542.716 1100.22 545.14 1097.8C547.564 1095.37 549.466 1092.63 550.841 1089.69L558.065 1110.73V1110.73ZM548.886 1061.94L551.191 1068.49L556.858 1062.82L556 1060.32C555.789 1054.54 557.897 1048.68 562.309 1044.27C566.726 1039.85 572.575 1037.74 578.362 1037.95L580.862 1038.81L586.524 1033.15L579.981 1030.84L535.32 1015.08L533.14 1017.26L548.886 1061.95V1061.94ZM565.322 1033.47C562.386 1034.84 559.641 1036.75 557.217 1039.17C554.793 1041.6 552.896 1044.34 551.521 1047.28L544.292 1026.24L565.322 1033.47ZM637.729 1051.16L639.908 1048.98L624.158 1004.3L621.853 997.756L616.191 1003.42L617.049 1005.92C617.255 1011.71 615.152 1017.56 610.735 1021.98C606.323 1026.39 600.469 1028.5 594.687 1028.29L592.187 1027.43L586.52 1033.1L593.063 1035.41L637.729 1051.16ZM628.752 1040L607.727 1032.76C610.663 1031.39 613.403 1029.49 615.827 1027.06C618.251 1024.64 620.153 1021.89 621.528 1018.95L628.752 1039.99V1040ZM619.573 991.205L621.877 997.747L627.544 992.077L626.687 989.576C626.476 983.791 628.584 977.935 632.996 973.521C637.413 969.103 643.262 966.999 649.044 967.205L651.544 968.063L657.206 962.398L650.663 960.088L606.002 944.331L603.822 946.512L619.568 991.195L619.573 991.205ZM636.009 962.734C633.072 964.109 630.328 966.012 627.904 968.437C625.48 970.862 623.583 973.603 622.203 976.541L614.974 955.507L636.004 962.734H636.009ZM708.415 980.513L710.595 978.333L694.844 933.654L692.54 927.108L686.878 932.772L687.735 935.274C687.941 941.063 685.838 946.914 681.422 951.333C677.01 955.747 671.156 957.855 665.374 957.644L662.878 956.787L657.211 962.456L663.755 964.766L708.42 980.518L708.415 980.513ZM699.433 969.357L678.409 962.125C681.345 960.75 684.085 958.847 686.509 956.422C688.933 953.997 690.835 951.251 692.21 948.314L699.433 969.352V969.357ZM690.26 920.566L692.564 927.112L698.231 921.443L697.374 918.942C697.163 913.157 699.271 907.301 703.683 902.887C708.099 898.469 713.948 896.365 719.73 896.571L722.231 897.429L727.893 891.764L721.349 889.454L676.689 873.697L674.509 875.878L690.255 920.561L690.26 920.566ZM706.696 892.095C703.759 893.47 701.014 895.373 698.59 897.798C696.166 900.223 694.269 902.964 692.895 905.902L685.666 884.868L706.696 892.095ZM779.145 909.822L781.325 907.641L765.574 862.962L763.265 856.416L757.603 862.081L758.46 864.582C758.666 870.371 756.563 876.223 752.147 880.641C747.735 885.055 741.881 887.164 736.099 886.953L733.598 886.095L727.931 891.764L734.475 894.074L779.14 909.827L779.145 909.822ZM770.163 898.661L749.138 891.429C752.075 890.053 754.815 888.151 757.239 885.726C759.663 883.301 761.565 880.555 762.939 877.617L770.163 898.656V898.661ZM760.99 849.875L763.294 856.421L768.961 850.752L768.103 848.25C767.893 842.466 770 836.609 774.412 832.196C778.829 827.777 784.678 825.673 790.46 825.879L792.961 826.737L798.623 821.073L792.079 818.768L747.419 803.011L745.239 805.191L760.985 849.875H760.99ZM777.426 821.399C774.489 822.774 771.744 824.677 769.32 827.102C766.896 829.526 764.999 832.268 763.62 835.205L756.391 814.172L777.421 821.399H777.426ZM849.827 839.178L852.007 836.998L836.256 792.319L833.952 785.777L828.29 791.442L829.147 793.943C829.353 799.733 827.25 805.584 822.838 809.998C818.426 814.411 812.572 816.52 806.791 816.309L804.29 815.451L798.623 821.121L805.167 823.431L849.832 839.183L849.827 839.178ZM840.85 828.022L819.825 820.79C822.762 819.415 825.502 817.512 827.926 815.092C830.35 812.667 832.251 809.921 833.626 806.983L840.85 828.022ZM831.672 779.231L833.981 785.777L839.648 780.108L838.79 777.606C838.579 771.822 840.687 765.966 845.099 761.552C849.516 757.134 855.365 755.03 861.152 755.236L863.652 756.094L869.314 750.429L862.771 748.119L818.11 732.362L815.931 734.543L831.676 779.226L831.672 779.231ZM848.107 750.76C845.171 752.135 842.426 754.038 840.002 756.463C837.578 758.888 835.681 761.629 834.306 764.566L827.078 743.533L848.107 750.76ZM920.514 768.482L922.694 766.301L906.943 721.622L904.634 715.076L898.972 720.741L899.829 723.242C900.035 729.031 897.932 734.883 893.515 739.297C889.099 743.71 883.25 745.819 877.468 745.608L874.967 744.75L869.3 750.42L875.839 752.729L920.504 768.482H920.514ZM911.537 757.325L890.512 750.094C893.448 748.718 896.188 746.816 898.612 744.396C901.036 741.971 902.938 739.225 904.313 736.287L911.537 757.325ZM902.358 708.535L904.667 715.081L910.334 709.412L909.477 706.91C909.266 701.126 911.374 695.269 915.786 690.856C920.203 686.437 926.052 684.333 931.834 684.539L934.334 685.397L939.996 679.733L933.458 677.423L888.797 661.666L886.617 663.846L902.363 708.53L902.358 708.535ZM918.794 680.063C915.858 681.439 913.113 683.341 910.689 685.766C908.265 688.191 906.368 690.932 904.988 693.87L897.76 672.837L918.789 680.063H918.794ZM496.35 1192.58L498.53 1190.4L482.779 1145.72L480.475 1139.18L474.813 1144.85L475.67 1147.34C475.876 1153.13 473.773 1158.98 469.357 1163.4C464.945 1167.82 459.091 1169.92 453.309 1169.71L450.808 1168.86L445.141 1174.53L451.685 1176.83L496.35 1192.58ZM487.368 1181.42L466.344 1174.19C469.28 1172.82 472.02 1170.91 474.444 1168.49C476.868 1166.07 478.77 1163.32 480.145 1160.38L487.368 1181.42ZM478.19 1132.64L480.499 1139.18L486.166 1133.51L485.309 1131.01C485.098 1125.23 487.206 1119.37 491.618 1114.96C496.034 1110.54 501.883 1108.43 507.67 1108.64L510.166 1109.5L515.828 1103.83L509.284 1101.53L464.624 1085.77L462.444 1087.95L478.19 1132.64ZM494.631 1104.16C491.694 1105.54 488.949 1107.44 486.525 1109.87C484.101 1112.29 482.204 1115.03 480.83 1117.97L473.601 1096.94L494.631 1104.16ZM629.044 1181.97L631.223 1179.79L615.473 1135.11L613.164 1128.56L607.501 1134.23L608.359 1136.72C608.565 1142.51 606.462 1148.37 602.045 1152.78C597.633 1157.2 591.779 1159.3 585.997 1159.09L583.497 1158.24L577.83 1163.91L584.374 1166.22L629.039 1181.97H629.044ZM620.067 1170.81L599.042 1163.58C601.978 1162.21 604.718 1160.3 607.142 1157.88C609.566 1155.45 611.468 1152.71 612.843 1149.77L620.067 1170.81V1170.81ZM610.888 1122.02L613.192 1128.57L618.859 1122.9L618.002 1120.4C617.791 1114.61 619.899 1108.76 624.311 1104.34C628.728 1099.92 634.577 1097.82 640.363 1098.03L642.864 1098.89L648.526 1093.22L641.983 1090.91L597.322 1075.16L595.142 1077.34L610.888 1122.02ZM627.324 1093.55C624.387 1094.92 621.643 1096.83 619.219 1099.25C616.795 1101.68 614.898 1104.42 613.518 1107.36L606.289 1086.32L627.319 1093.55H627.324ZM699.73 1111.23L701.91 1109.05L686.159 1064.37L683.85 1057.83L678.188 1063.49L679.046 1065.99C679.252 1071.78 677.149 1077.63 672.732 1082.05C668.32 1086.46 662.466 1088.57 656.684 1088.36L654.184 1087.5L648.517 1093.17L655.06 1095.48L699.726 1111.23H699.73ZM690.749 1100.08L669.724 1092.84C672.66 1091.47 675.4 1089.57 677.824 1087.15C680.248 1084.72 682.15 1081.98 683.525 1079.04L690.749 1100.08ZM681.575 1051.29L683.879 1057.83L689.546 1052.16L688.689 1049.66C688.478 1043.88 690.586 1038.02 694.998 1033.61C699.414 1029.19 705.263 1027.09 711.05 1027.3L713.551 1028.15L719.213 1022.49L712.669 1020.18L668.009 1004.42L665.829 1006.6L681.575 1051.29ZM698.011 1022.82C695.074 1024.19 692.329 1026.09 689.905 1028.52C687.481 1030.94 685.584 1033.68 684.21 1036.62L676.981 1015.59L698.011 1022.82ZM770.412 1040.59L772.592 1038.41L756.841 993.735L754.537 987.189L748.875 992.854L749.732 995.355C749.938 1001.14 747.835 1007 743.419 1011.41C739.007 1015.82 733.153 1017.93 727.371 1017.72L724.87 1016.86L719.203 1022.53L725.747 1024.84L770.412 1040.59ZM761.435 1029.43L740.41 1022.2C743.347 1020.83 746.087 1018.92 748.511 1016.5C750.935 1014.07 752.837 1011.33 754.211 1008.39L761.435 1029.43V1029.43ZM752.257 980.648L754.561 987.189L760.228 981.52L759.371 979.018C759.16 973.234 761.268 967.378 765.68 962.964C770.096 958.545 775.945 956.442 781.727 956.652L784.228 957.51L789.89 951.846L783.351 949.536L738.691 933.779L736.511 935.959L752.257 980.643V980.648ZM768.697 952.172C765.761 953.547 763.016 955.449 760.592 957.874C758.168 960.299 756.271 963.041 754.892 965.978L747.663 944.945L768.693 952.172H768.697ZM841.147 969.898L843.327 967.718L827.576 923.039L825.267 916.497L819.605 922.162L820.462 924.664C820.668 930.453 818.565 936.304 814.149 940.723C809.737 945.136 803.883 947.245 798.101 947.034L795.6 946.176L789.933 951.846L796.472 954.156L841.137 969.908L841.147 969.898ZM832.165 958.742L811.14 951.51C814.077 950.135 816.817 948.232 819.241 945.807C821.665 943.382 823.566 940.636 824.941 937.699L832.165 958.737V958.742ZM822.987 909.951L825.296 916.497L830.963 910.828L830.105 908.327C829.894 902.542 832.002 896.686 836.414 892.272C840.831 887.854 846.68 885.75 852.462 885.956L854.963 886.814L860.625 881.149L854.086 878.839L809.425 863.082L807.246 865.263L822.992 909.946L822.987 909.951ZM839.427 881.48C836.491 882.855 833.746 884.758 831.322 887.183C828.898 889.608 827.001 892.349 825.626 895.287L818.398 874.253L839.427 881.48ZM911.829 899.26L914.009 897.079L898.258 852.4L895.949 845.854L890.287 851.518L891.144 854.02C891.35 859.809 889.247 865.661 884.83 870.074C880.414 874.488 874.565 876.597 868.783 876.386L866.282 875.528L860.615 881.197L867.159 883.507L911.824 899.26H911.829ZM902.852 888.103L881.827 880.871C884.763 879.496 887.504 877.593 889.927 875.173C892.351 872.748 894.253 870.002 895.628 867.065L902.852 888.103ZM910.109 810.841C907.173 812.217 904.428 814.119 902.004 816.544C899.58 818.969 897.683 821.71 896.303 824.648L889.075 803.614L910.104 810.841H910.109ZM973.539 817.402L952.514 810.17C955.45 808.795 958.19 806.892 960.614 804.467C963.038 802.042 964.94 799.296 966.315 796.359L973.539 817.397V817.402ZM964.36 768.616L966.669 775.158L972.336 769.488L971.479 766.987C971.268 761.202 973.376 755.346 977.788 750.932C982.204 746.514 988.053 744.41 993.835 744.621L996.336 745.479L1002 739.814L995.455 737.504L950.794 721.747L948.614 723.928L964.36 768.611V768.616ZM980.796 740.14C977.86 741.515 975.115 743.418 972.691 745.843C970.267 748.268 968.37 751.009 966.995 753.947L959.766 732.913L980.796 740.14ZM558.347 1252.66L560.527 1250.48L544.776 1205.8L542.472 1199.26L536.81 1204.93L537.667 1207.43C537.873 1213.22 535.77 1219.07 531.354 1223.48C526.942 1227.9 521.088 1230.01 515.306 1229.8L512.81 1228.94L507.143 1234.61L513.687 1236.91L558.352 1252.66H558.347ZM549.37 1241.5L528.345 1234.27C531.282 1232.9 534.022 1230.99 536.446 1228.57C538.87 1226.14 540.772 1223.4 542.146 1220.46L549.37 1241.5V1241.5ZM540.192 1192.72L542.501 1199.26L548.168 1193.59L547.31 1191.09C547.1 1185.31 549.207 1179.45 553.619 1175.04C558.036 1170.62 563.885 1168.52 569.672 1168.72L572.172 1169.58L577.835 1163.92L571.291 1161.61L526.63 1145.85L524.451 1148.03L540.197 1192.71L540.192 1192.72ZM556.628 1164.24C553.691 1165.62 550.946 1167.52 548.522 1169.94C546.098 1172.37 544.201 1175.11 542.822 1178.05L535.593 1157.02L556.623 1164.24H556.628ZM691.055 1242.3L693.235 1240.12L677.484 1195.44L675.18 1188.9L669.518 1194.56L670.375 1197.06C670.581 1202.85 668.478 1208.7 664.061 1213.12C659.649 1217.53 653.796 1219.64 648.014 1219.43L645.513 1218.57L639.846 1224.24L646.385 1226.55L691.05 1242.3L691.055 1242.3ZM682.073 1231.15L661.048 1223.91C663.985 1222.54 666.725 1220.64 669.149 1218.22C671.573 1215.79 673.474 1213.05 674.849 1210.11L682.073 1231.15ZM672.895 1182.36L675.204 1188.9L680.871 1183.23L680.013 1180.73C679.803 1174.94 681.91 1169.09 686.322 1164.67C690.739 1160.25 696.588 1158.15 702.37 1158.36L704.871 1159.21L710.533 1153.55L703.989 1151.24L659.328 1135.49L657.149 1137.67L672.895 1182.35V1182.36ZM689.335 1153.89C686.399 1155.26 683.654 1157.16 681.235 1159.59C678.811 1162.01 676.914 1164.75 675.534 1167.69L668.306 1146.65L689.335 1153.88V1153.89ZM761.737 1171.57L763.917 1169.39L748.166 1124.71L745.857 1118.17L740.195 1123.83L741.052 1126.33C741.258 1132.12 739.155 1137.98 734.738 1142.39C730.327 1146.8 724.473 1148.91 718.691 1148.7L716.195 1147.84L710.528 1153.51L717.072 1155.82L761.737 1171.57V1171.57ZM752.76 1160.41L731.735 1153.18C734.671 1151.81 737.412 1149.9 739.835 1147.48C742.259 1145.05 744.161 1142.31 745.536 1139.37L752.76 1160.41ZM743.582 1111.62L745.891 1118.17L751.558 1112.5L750.7 1110C750.489 1104.22 752.597 1098.36 757.009 1093.95C761.426 1089.53 767.275 1087.42 773.057 1087.63L775.557 1088.49L781.22 1082.83L774.681 1080.52L730.02 1064.76L727.84 1066.94L743.586 1111.63L743.582 1111.62ZM760.017 1083.15C757.081 1084.53 754.336 1086.43 751.912 1088.85C749.488 1091.28 747.591 1094.02 746.211 1096.96L738.983 1075.92L760.013 1083.15H760.017ZM832.424 1100.93L834.603 1098.75L818.853 1054.07L816.544 1047.53L810.881 1053.19L811.739 1055.7C811.945 1061.48 809.842 1067.34 805.43 1071.75C801.018 1076.16 795.164 1078.27 789.382 1078.06L786.882 1077.2L781.215 1082.87L787.758 1085.18L832.424 1100.93V1100.93ZM823.447 1089.77L802.422 1082.54C805.358 1081.16 808.098 1079.26 810.522 1076.84C812.946 1074.41 814.848 1071.67 816.223 1068.73L823.447 1089.77ZM814.268 1040.98L816.577 1047.52L822.244 1041.85L821.387 1039.36C821.176 1033.57 823.284 1027.72 827.696 1023.3C832.112 1018.89 837.961 1016.78 843.748 1016.99L846.244 1017.85L851.906 1012.18L845.363 1009.87L800.702 994.114L798.522 996.294L814.268 1040.98ZM830.704 1012.51C827.768 1013.88 825.023 1015.79 822.599 1018.21C820.175 1020.64 818.278 1023.38 816.898 1026.31L809.67 1005.28L830.699 1012.51H830.704ZM903.154 1030.23L905.333 1028.05L889.583 983.374L887.278 976.828L881.616 982.493L882.474 984.994C882.68 990.783 880.577 996.635 876.16 1001.05C871.748 1005.47 865.894 1007.58 860.112 1007.36L857.612 1006.51L851.945 1012.18L858.488 1014.49L903.154 1030.24V1030.23ZM894.176 1019.08L873.152 1011.85C876.088 1010.47 878.828 1008.57 881.252 1006.15C883.676 1003.72 885.578 1000.98 886.953 998.039L894.176 1019.08ZM884.998 970.287L887.302 976.833L892.969 971.164L892.112 968.662C891.901 962.878 894.009 957.021 898.421 952.608C902.837 948.189 908.687 946.085 914.473 946.291L916.969 947.149L922.631 941.485L916.088 939.175L871.427 923.418L869.247 925.598L884.993 970.282L884.998 970.287ZM901.434 941.815C898.497 943.191 895.753 945.093 893.329 947.518C890.905 949.943 889.008 952.684 887.633 955.622L880.404 934.589L901.434 941.815ZM973.84 959.595L976.02 957.414L960.269 912.736L957.96 906.189L952.298 911.854L953.156 914.355C953.362 920.144 951.259 925.996 946.842 930.414C942.43 934.828 936.576 936.937 930.794 936.726L928.294 935.868L922.627 941.537L929.165 943.847L973.831 959.6L973.84 959.595ZM964.858 948.434L943.833 941.202C946.77 939.827 949.51 937.924 951.934 935.499C954.358 933.074 956.26 930.328 957.635 927.39L964.858 948.429V948.434ZM955.68 899.648L957.989 906.194L963.656 900.525L962.799 898.023C962.588 892.239 964.696 886.383 969.107 881.969C973.519 877.555 979.373 875.446 985.155 875.653L987.656 876.51L993.318 870.846L986.774 868.536L942.114 852.779L939.934 854.959L955.68 899.643V899.648ZM972.121 871.177C969.184 872.552 966.439 874.454 964.015 876.879C961.591 879.304 959.694 882.045 958.32 884.983L951.091 863.95L972.121 871.177ZM1044.52 888.899L1046.7 886.718L1030.95 842.039L1028.64 835.493L1022.98 841.157L1023.84 843.654C1024.04 849.443 1021.94 855.295 1017.52 859.713C1013.11 864.132 1007.26 866.236 1001.48 866.025L998.975 865.167L993.308 870.836L999.852 873.146L1044.52 888.899H1044.52ZM1035.54 877.737L1014.52 870.506C1017.46 869.13 1020.2 867.228 1022.62 864.808C1025.04 862.383 1026.95 859.637 1028.32 856.699L1035.54 877.737ZM1026.37 828.951L1028.67 835.498L1034.34 829.828L1033.48 827.327C1033.27 821.542 1035.38 815.686 1039.79 811.272C1044.21 806.854 1050.05 804.75 1055.84 804.956L1058.34 805.814L1064 800.149L1057.46 797.84L1012.8 782.082L1010.62 784.263L1026.36 828.947L1026.37 828.951ZM1042.8 800.475C1039.87 801.851 1037.12 803.753 1034.7 806.178C1032.27 808.603 1030.38 811.344 1029 814.282L1021.77 793.249L1042.8 800.475H1042.8ZM620.359 1313L622.538 1310.82L606.788 1266.14L604.483 1259.59L598.821 1265.26L599.679 1267.76C599.885 1273.54 597.782 1279.4 593.365 1283.82C588.953 1288.23 583.099 1290.34 577.317 1290.13L574.817 1289.27L569.15 1294.94L575.693 1297.24L620.359 1312.99V1313ZM611.377 1301.84L590.352 1294.61C593.288 1293.23 596.028 1291.33 598.452 1288.9C600.876 1286.48 602.778 1283.73 604.153 1280.8L611.377 1301.83V1301.84ZM602.203 1253.05L604.507 1259.59L610.174 1253.92L609.317 1251.42C609.106 1245.64 611.214 1239.78 615.626 1235.37C620.043 1230.95 625.892 1228.85 631.674 1229.06L634.174 1229.91L639.836 1224.25L633.293 1221.95L588.632 1206.19L586.453 1208.37L602.198 1253.05L602.203 1253.05ZM618.639 1224.58C615.703 1225.95 612.958 1227.86 610.539 1230.28C608.115 1232.71 606.218 1235.45 604.838 1238.38L597.609 1217.35L618.639 1224.58Z" stroke="#A6874B" stroke-miterlimit="10"/>
</g>
</g>
<defs>
<clipPath id="clip0_4002_27">
<rect width="364" height="408" fill="white" transform="translate(231 434)"/>
</clipPath>
</defs>
</svg>
